<?xml version="1.0" standalone="no"?>
<!DOCTYPE svg PUBLIC "-//W3C//DTD SVG 1.1//EN" "http://www.w3.org/Graphics/SVG/1.1/DTD/svg11.dtd" >
<svg xmlns="http://www.w3.org/2000/svg">
<metadata>Generated by IcoMoon</metadata>
<defs>
<font id="icomoon" horiz-adv-x="1024">
<font-face units-per-em="1024" ascent="960" descent="-64" />
<missing-glyph horiz-adv-x="1024" />
<glyph unicode="&#x20;" horiz-adv-x="512" d="" />
<glyph unicode="&#xe900;" glyph-name="icon-arrow-down" d="M466.816 143.84l-388.512 388.512c-18.080 18.080-48.16 18.080-66.272 0-9.056-9.056-12.032-21.088-12.032-33.12s6.016-24.096 12.032-33.12l466.816-466.816c3.040-3.040 6.016-3.040 6.016-6.016 0 0 3.040 0 3.040-3.040 0 0 3.040-3.040 3.040-3.040s3.040 0 6.016 0c0 0 3.040 0 3.040 0 6.016 0 12.032 0 18.080 0 0 0 3.040 0 3.040 0 3.040 0 3.040 0 6.016 0s3.040 3.040 3.040 3.040c0 0 3.040 0 3.040 3.040 3.040 3.040 6.016 3.040 6.016 6.016l466.816 466.816c18.080 18.080 18.080 48.16 0 66.272s-48.16 18.080-66.272 0l-388.512-388.512v719.84c0 24.096-21.088 45.184-45.184 45.184s-45.184-21.088-45.184-45.184l6.016-719.84z" />
<glyph unicode="&#xe901;" glyph-name="icon-arrow-left" d="M207.84 402.816l388.512-388.512c18.080-18.080 18.080-48.16 0-66.272-9.056-9.056-21.088-12.032-33.12-12.032s-24.096 6.016-33.12 12.032l-466.816 466.816c-3.040 3.040-3.040 6.016-6.016 6.016 0 0 0 3.040-3.040 3.040 0 0-3.040 3.040-3.040 3.040s0 3.040 0 6.016c0 0 0 3.040 0 3.040 0 6.016 0 12.032 0 18.080 0 0 0 3.040 0 3.040 0 3.040 0 3.040 0 6.016s3.040 3.040 3.040 3.040c0 0 0 3.040 3.040 3.040 3.040 3.040 3.040 6.016 6.016 6.016l466.816 466.816c18.080 18.080 48.16 18.080 66.272 0s18.080-48.16 0-66.272l-388.512-388.512h719.84c24.096 0 45.184-21.088 45.184-45.184s-21.088-45.184-45.184-45.184l-719.84 6.016z" />
<glyph unicode="&#xe902;" glyph-name="icon-arrow-right" d="M816.16 493.184l-388.512 388.512c-18.080 18.080-18.080 48.16 0 66.272 9.056 9.056 21.088 12.032 33.12 12.032s24.096-6.016 33.12-12.032l466.816-466.816c3.040-3.040 3.040-6.016 6.016-6.016 0 0 0-3.040 3.040-3.040 0 0 3.040-3.040 3.040-3.040s0-3.040 0-6.016c0 0 0-3.040 0-3.040 0-6.016 0-12.032 0-18.080 0 0 0-3.040 0-3.040 0-3.040 0-3.040 0-6.016s-3.040-3.040-3.040-3.040c0 0 0-3.040-3.040-3.040-3.040-3.040-3.040-6.016-6.016-6.016l-466.816-466.816c-18.080-18.080-48.16-18.080-66.272 0s-18.080 48.16 0 66.272l388.512 388.512h-719.84c-24.096 0-45.184 21.088-45.184 45.184s21.088 45.184 45.184 45.184l719.84-6.016z" />
<glyph unicode="&#xe903;" glyph-name="icon-arrow-up" d="M466.816 752.16l-388.512-388.512c-18.080-18.080-48.16-18.080-66.272 0-9.056 9.056-12.032 21.088-12.032 33.12s6.016 24.096 12.032 33.12l466.816 466.816c3.040 3.040 6.016 3.040 6.016 6.016 0 0 3.040 0 3.040 3.040 0 0 3.040 3.040 3.040 3.040s3.040 0 6.016 0c0 0 3.040 0 3.040 0 6.016 0 12.032 0 18.080 0 0 0 3.040 0 3.040 0 3.040 0 3.040 0 6.016 0s3.040-3.040 3.040-3.040c0 0 3.040 0 3.040-3.040 3.040-3.040 6.016-3.040 6.016-6.016l466.816-466.816c18.080-18.080 18.080-48.16 0-66.272s-48.16-18.080-66.272 0l-388.512 388.512v-719.84c0-24.096-21.088-45.184-45.184-45.184s-45.184 21.088-45.184 45.184l6.016 719.84z" />
<glyph unicode="&#xe904;" glyph-name="icon-ban-circle" d="M512 960c-283.104 0-512-228.896-512-512s228.896-512 512-512 512 228.896 512 512-228.896 512-512 512zM66.272 448c0 246.944 198.784 445.728 445.728 445.728 108.416 0 207.84-39.168 283.104-102.4l-626.432-626.432c-63.232 75.296-102.4 174.688-102.4 283.104zM512 2.272c-108.416 0-207.84 39.168-283.104 102.4l629.472 629.472c63.232-78.304 102.4-174.688 102.4-283.104-3.040-249.984-201.76-448.768-448.768-448.768z" />
<glyph unicode="&#xe905;" glyph-name="icon-calendar" d="M481.888 207.072h60.256v-60.256h-60.256v60.256zM481.888 86.56h60.256c33.12 0 60.256 27.104 60.256 60.256v60.256c0 33.12-27.104 60.256-60.256 60.256h-60.256c-33.12 0-60.256-27.104-60.256-60.256v-60.256c0-33.12 27.104-60.256 60.256-60.256v0zM240.928 207.072h60.256v-60.256h-60.256v60.256zM240.928 86.56h60.256c33.12 0 60.256 27.104 60.256 60.256v60.256c0 33.12-27.104 60.256-60.256 60.256h-60.256c-33.12 0-60.256-27.104-60.256-60.256v-60.256c0-33.12 27.104-60.256 60.256-60.256v0zM481.888 448h60.256v-60.256h-60.256v60.256zM481.888 327.52h60.256c33.12 0 60.256 27.104 60.256 60.256v60.256c0 33.12-27.104 60.256-60.256 60.256h-60.256c-33.12 0-60.256-27.104-60.256-60.256v-60.256c0-33.12 27.104-60.256 60.256-60.256v0zM240.928 448h60.256v-60.256h-60.256v60.256zM240.928 327.52h60.256c33.12 0 60.256 27.104 60.256 60.256v60.256c0 33.12-27.104 60.256-60.256 60.256h-60.256c-33.12 0-60.256-27.104-60.256-60.256v-60.256c0-33.12 27.104-60.256 60.256-60.256v0zM900.512 688.928h-780.032v60.256c0 33.12 27.104 60.256 60.256 60.256h120.48v-30.112c0-18.080 12.032-30.112 30.112-30.112s30.112 12.032 30.112 30.112v30.112h301.184v-30.112c0-18.080 12.032-30.112 30.112-30.112s30.112 12.032 30.112 30.112v30.112h120.48c33.12 0 60.256-27.104 60.256-60.256v-60.256h-3.040zM900.512 86.56c0-33.12-27.104-60.256-60.256-60.256h-659.584c-33.12 0-60.256 27.104-60.256 60.256v542.112h780.032v-542.112zM843.296 869.632h-120.48v30.112c0 18.080-12.032 30.112-30.112 30.112s-30.112-12.032-30.112-30.112v-30.112h-301.184v30.112c0 18.080-12.032 30.112-30.112 30.112s-30.112-12.032-30.112-30.112v-30.112h-120.48c-66.272 0-120.48-54.24-120.48-120.48v-662.56c0-66.272 54.24-120.48 120.48-120.48h662.56c66.272 0 120.48 54.24 120.48 120.48v662.56c-3.040 66.272-54.24 120.48-120.48 120.48v0zM722.816 448h60.256v-60.256h-60.256v60.256zM722.816 327.52h60.256c33.12 0 60.256 27.104 60.256 60.256v60.256c0 33.12-27.104 60.256-60.256 60.256h-60.256c-33.12 0-60.256-27.104-60.256-60.256v-60.256c0-33.12 27.104-60.256 60.256-60.256v0zM722.816 207.072h60.256v-60.256h-60.256v60.256zM722.816 86.56h60.256c33.12 0 60.256 27.104 60.256 60.256v60.256c0 33.12-27.104 60.256-60.256 60.256h-60.256c-33.12 0-60.256-27.104-60.256-60.256v-60.256c0-33.12 27.104-60.256 60.256-60.256v0z" />
<glyph unicode="&#xe906;" glyph-name="icon-camera" d="M512 207.072c-99.36 0-180.704 81.312-180.704 180.704s81.312 180.704 180.704 180.704 180.704-81.312 180.704-180.704-81.312-180.704-180.704-180.704v0zM512 628.704c-132.512 0-240.928-108.416-240.928-240.928s108.416-240.928 240.928-240.928 240.928 108.416 240.928 240.928-108.416 240.928-240.928 240.928v0zM933.632 146.816c0-33.12-27.104-60.256-60.256-60.256h-722.816c-33.12 0-60.256 27.104-60.256 60.256v481.888c0 33.12 27.104 60.256 60.256 60.256h120.48l30.112 60.256c21.088 36.128 27.104 60.256 60.256 60.256h301.184c33.12 0 39.168-24.096 60.256-60.256l30.112-60.256h120.48c33.12 0 60.256-27.104 60.256-60.256v-481.888zM873.44 749.184h-90.368l-30.112 60.256c-18.080 36.128-27.104 60.256-60.256 60.256h-361.44c-33.12 0-45.184-30.112-60.256-60.256l-30.112-60.256h-90.368c-66.272 0-120.48-54.24-120.48-120.48v-481.888c0-66.272 54.24-120.48 120.48-120.48h722.816c66.272 0 120.48 54.24 120.48 120.48v481.888c0 66.272-54.24 120.48-120.48 120.48v0z" />
<glyph unicode="&#xe907;" glyph-name="icon-close" d="M512 371.2l-387.2-387.2c-9.6-9.6-22.4-16-38.4-16s-28.8 3.2-38.4 16v0c-22.4 22.4-22.4 54.4 0 76.8l387.2 387.2-387.2 387.2c-22.4 22.4-22.4 54.4 0 76.8s54.4 22.4 76.8 0l387.2-387.2 387.2 387.2c22.4 22.4 54.4 22.4 76.8 0s22.4-54.4 0-76.8l-387.2-387.2 387.2-387.2c22.4-22.4 22.4-54.4 0-76.8-12.8-12.8-25.6-16-38.4-16s-28.8 6.4-38.4 16l-387.2 387.2z" />
<glyph unicode="&#xe908;" glyph-name="icon-cog" d="M939.68 237.184l-33.12-60.256c-9.056-15.072-30.112-21.088-45.184-12.032l-93.344 54.24c-48.16-54.24-111.456-93.344-186.72-108.416v-75.296c0-18.080-15.072-33.12-33.12-33.12h-66.272c-18.080 0-33.12 15.072-33.12 33.12v75.296c-72.288 15.072-138.528 54.24-186.72 108.416l-93.344-54.24c-15.072-9.056-36.128-3.040-45.184 12.032l-33.12 60.256c-9.056 15.072-3.040 36.128 12.032 45.184l93.344 54.24c-12.032 33.12-18.080 69.28-18.080 108.416s6.016 75.296 18.080 108.416l-93.344 54.24c-15.072 9.056-21.088 30.112-12.032 45.184l33.12 60.256c9.056 15.072 30.112 21.088 45.184 12.032l93.344-54.24c48.16 54.24 111.456 93.344 186.72 108.416v75.296c0 18.080 15.072 33.12 33.12 33.12h66.272c18.080 0 33.12-15.072 33.12-33.12v-75.296c72.288-15.072 138.528-54.24 186.72-108.416l93.344 54.24c15.072 9.056 36.128 3.040 45.184-12.032l33.12-60.256c9.056-15.072 3.040-36.128-12.032-45.184l-93.344-54.24c12.032-33.12 18.080-69.28 18.080-108.416s-6.016-75.296-18.080-108.416l93.344-54.24c15.072-6.016 21.088-27.104 12.032-45.184v0zM990.88 327.52l-78.304 45.184c3.040 24.096 6.016 48.16 6.016 75.296 0 24.096-3.040 51.2-6.016 75.296l78.304 45.184c33.12 18.080 42.144 60.256 24.096 93.344l-66.272 117.472c-18.080 33.12-60.256 45.184-93.344 24.096l-81.312-45.184c-36.128 33.12-81.312 57.216-126.496 75.296v57.216c0 39.168-30.112 69.28-66.272 69.28h-135.52c-36.128 0-66.272-30.112-66.272-69.28v-57.216c-48.16-18.080-90.368-42.144-126.496-75.296l-81.312 45.184c-33.12 18.080-75.296 9.056-93.344-24.096l-66.272-117.472c-18.080-33.12-9.056-75.296 24.096-93.344l78.304-45.184c-3.040-24.096-6.016-48.16-6.016-75.296 0-24.096 3.040-51.2 6.016-75.296l-78.304-45.184c-33.12-18.080-42.144-60.256-24.096-93.344l66.272-117.472c18.080-33.12 60.256-45.184 93.344-24.096l81.312 45.184c36.128-33.12 81.312-57.216 126.496-75.296v-57.216c0-39.168 30.112-69.28 66.272-69.28h135.52c36.128 0 66.272 30.112 66.272 69.28v57.216c48.16 18.080 90.368 42.144 126.496 75.296l81.312-45.184c33.12-18.080 75.296-9.056 93.344 24.096l66.272 117.472c18.080 33.12 9.056 75.296-24.096 93.344v0zM512 345.6c-57.216 0-102.4 45.184-102.4 102.4s45.184 102.4 102.4 102.4 102.4-45.184 102.4-102.4c0-57.216-45.184-102.4-102.4-102.4v0zM512 619.68c-93.344 0-168.672-75.296-168.672-171.68 0-93.344 75.296-171.68 168.672-171.68s168.672 75.296 168.672 171.68c0 93.344-75.296 171.68-168.672 171.68v0z" />
<glyph unicode="&#xe909;" glyph-name="icon-comment" d="M512 149.856c-33.12 0-66.272 3.040-102.4 12.032l-144.544-84.32 6.016-3.040 3.040 138.528c-111.456 69.28-180.704 177.696-180.704 295.168 0 198.784 186.72 358.4 418.656 358.4s418.656-159.616 418.656-358.4c0-198.784-186.72-358.4-418.656-358.4v0zM512 932.896c-268.032 0-484.896-189.728-484.896-424.672 0-129.504 69.28-249.984 180.704-331.296v-210.816l6.016-3.040 210.816 129.504c27.104-6.016 57.216-9.056 87.328-9.056 268.032 0 484.896 189.728 484.896 424.672s-216.832 424.672-484.896 424.672v0zM722.816 601.6h-421.632c-18.080 0-33.12-15.072-33.12-33.12s15.072-33.12 33.12-33.12h421.632c18.080 0 33.12 15.072 33.12 33.12s-15.072 33.12-33.12 33.12v0zM662.56 420.896h-301.184c-18.080 0-33.12-15.072-33.12-33.12s15.072-33.12 33.12-33.12h301.184c18.080 0 33.12 15.072 33.12 33.12s-15.072 33.12-33.12 33.12v0z" />
<glyph unicode="&#xe90a;" glyph-name="icon-copyright-mark" d="M512-64c283.104 0 512 228.896 512 512s-228.896 512-512 512-512-228.896-512-512 228.896-512 512-512v0zM512 2.272c-246.944 0-445.728 198.784-445.728 445.728s198.784 445.728 445.728 445.728 445.728-198.784 445.728-445.728-198.784-445.728-445.728-445.728v0zM533.088 661.856c-126.496 0-222.88-93.344-222.88-213.856s96.384-216.832 219.872-216.832c60.256 0 120.48 27.104 165.632 69.28l-42.144 48.16c-33.12-30.112-75.296-51.2-117.472-51.2-84.32 0-150.56 66.272-150.56 150.56s66.272 150.56 150.56 150.56c42.144 0 87.328-21.088 117.472-54.24l42.144 51.2c-42.144 42.144-102.4 66.272-162.656 66.272v0z" />
<glyph unicode="&#xe90b;" glyph-name="icon-douban" d="M311.392 309.504c41.696-56.864 79.296-128.416 112.224-208.672h202.336c39.36 61.92 69.76 133.536 99.456 208.672l114.176-38.368c-29.856-63.36-66.176-122.144-100.32-170.304h283.296l1.44-100.832h-1024v96l310.304 4.832c-26.784 51.84-60.608 110.464-103.936 170.304l105.024 38.368zM32 896h960v-96h-960v96zM132.224 707.776l763.776-3.776v-384h-768l4.224 387.776zM800 416l4.032 197.184-580.032-5.184v-192h576z" />
<glyph unicode="&#xe90c;" glyph-name="icon-embed" d="M704.768 667.872l256-228.896v54.24l-252.96-249.984c-15.072-12.032-15.072-39.168 0-51.2 12.032-15.072 39.168-15.072 51.2 0l252.96 249.984c15.072 15.072 15.072 39.168 0 54.24l-256 228.896c-15.072 12.032-39.168 12.032-51.2-3.040-15.072-18.080-15.072-42.144 0-54.24v0zM268.032 722.080l-256-228.896c-15.072-12.032-15.072-39.168 0-54.24l252.96-249.984c15.072-12.032 39.168-12.032 51.2 0 12.032 15.072 12.032 39.168 0 51.2l-252.96 249.984v-54.24l256 228.896c15.072 12.032 15.072 39.168 3.040 51.2-15.072 18.080-42.144 18.080-54.24 6.016v0zM575.232 746.144l-201.76-572.256c-6.016-18.080 3.040-42.144 21.088-48.16s42.144 3.040 48.16 21.088l201.76 572.256c6.016 18.080-3.040 42.144-21.088 48.16-21.088 9.056-42.144 0-48.16-21.088v0z" />
<glyph unicode="&#xe90d;" glyph-name="icon-envelope" d="M924.64 207.072c0-6.016 0-9.056-3.040-15.072l6.016 3.040-265.056 289.12v-6.016l268.032 210.816-6.016 3.040v-484.896zM144.544 146.816l268.032 289.12h-6.016l102.4-78.304h6.016l96.384 78.304h-6.016l274.080-289.12 3.040 6.016c-3.040 0-737.888 0-740.896 0l3.040-6.016zM99.36 207.072v481.888l-6.016-3.040 268.032-210.816v6.016l-265.056-289.12 6.016-3.040c-3.040 9.056-3.040 12.032-3.040 18.080v0zM897.504 752.16l-388.512-301.184h6.016l-388.512 301.184-3.040-9.056h777.056l-3.040 9.056zM870.4 812.416h-716.8c-69.28 0-123.488-57.216-123.488-123.488v-481.888c0-69.28 54.24-123.488 123.488-123.488h716.8c69.28 0 123.488 57.216 123.488 123.488v481.888c0 69.28-54.24 123.488-123.488 123.488v0z" />
<glyph unicode="&#xe90e;" glyph-name="icon-exclamation-sign" d="M512-64c280.096 0 512 231.904 512 512s-231.904 512-512 512-512-231.904-512-512 231.904-512 512-512v0zM512 2.272c-246.944 0-445.728 201.76-445.728 445.728s198.784 445.728 445.728 445.728 445.728-201.76 445.728-445.728-198.784-445.728-445.728-445.728v0zM572.256 237.184c0-33.28-26.976-60.256-60.256-60.256s-60.256 26.976-60.256 60.256c0 33.28 26.976 60.256 60.256 60.256s60.256-26.976 60.256-60.256zM512 716.032v0c33.12 0 60.256-54.24 60.256-120.48v-120.48c0-66.272-27.104-120.48-60.256-120.48v0c-33.12 0-60.256 54.24-60.256 120.48v123.488c0 66.272 27.104 117.472 60.256 117.472z" />
<glyph unicode="&#xe90f;" glyph-name="icon-fb" d="M588.8 960c-106.656 0-196.256-89.6-196.256-196.256v-119.456h-157.856v-157.856h157.856v-550.4h157.856v550.4h179.2l38.4 157.856h-217.6v119.456c0 21.344 17.056 38.4 38.4 38.4h196.256v157.856h-196.256z" />
<glyph unicode="&#xe910;" glyph-name="icon-file-music" d="M659.2 928h-406.4c-67.2 0-124.8-57.6-124.8-124.8v-707.2c0-70.4 57.6-128 124.8-128h515.2c70.4 0 124.8 57.6 124.8 124.8v569.6l-233.6 265.6zM675.2 819.2l124.8-137.6h-124.8v137.6zM771.2 28.8h-518.4c-35.2 0-67.2 28.8-67.2 67.2v707.2c0 35.2 28.8 67.2 67.2 67.2h361.6v-246.4h220.8v-528c0-38.4-28.8-67.2-64-67.2zM400 320c-12.8 6.4-25.6 6.4-38.4 6.4-41.6 0-73.6-22.4-73.6-57.6s35.2-57.6 73.6-57.6 73.6 22.4 73.6 57.6v259.2l188.8-64v-224c-12.8 6.4-25.6 6.4-38.4 6.4-41.6 0-73.6-22.4-73.6-57.6 0-32 35.2-57.6 73.6-57.6s73.6 22.4 73.6 57.6v284.8c0 9.6-6.4 16-12.8 19.2l-224 73.6c-9.6 3.2-19.2-3.2-22.4-12.8 0-3.2 0-3.2 0-6.4v-227.2z" />
<glyph unicode="&#xe911;" glyph-name="icon-file" d="M752-64c86.4 0 156.8 70.4 156.8 156.8v0 569.6c0 9.6-3.2 22.4-12.8 28.8l-275.2 259.2c-6.4 6.4-16 9.6-25.6 9.6h-323.2c-86.4 0-156.8-70.4-156.8-156.8v-710.4c0-86.4 70.4-156.8 156.8-156.8h480zM633.6 828.8l137.6-128h-137.6v128zM195.2 92.8v710.4c0 41.6 35.2 76.8 76.8 76.8h281.6v-220.8c0-22.4 16-38.4 38.4-38.4h236.8v-531.2c0-41.6-35.2-76.8-76.8-76.8h-480c-41.6 0-76.8 35.2-76.8 80v0zM300.8 438.4h233.6c22.4 0 38.4 19.2 38.4 41.6 0 19.2-16 35.2-38.4 38.4h-233.6c-22.4 0-38.4-19.2-38.4-41.6 3.2-19.2 19.2-35.2 38.4-38.4zM300.8 284.8h419.2c22.4 0 38.4 16 38.4 38.4s-16 38.4-38.4 38.4h-419.2c-22.4 0-38.4-16-38.4-38.4 0-19.2 19.2-38.4 38.4-38.4zM300.8 131.2h419.2c22.4 0 38.4 19.2 38.4 41.6 0 19.2-16 35.2-38.4 38.4h-419.2c-22.4 0-38.4-19.2-38.4-41.6 3.2-22.4 19.2-38.4 38.4-38.4z" />
<glyph unicode="&#xe912;" glyph-name="icon-flash" d="M813.184 487.168l-262.016 69.28 174.688 382.496c6.016 15.072-12.032 33.12-24.096 18.080l-496.928-524.032c-9.056-9.056-3.040-21.088 6.016-24.096l262.016-69.28-138.528-382.496c-6.016-15.072 15.072-27.104 24.096-15.072l6.016 6.016 451.744 512c9.056 9.056 6.016 24.096-3.040 27.104z" />
<glyph unicode="&#xe913;" glyph-name="icon-fullscreen" d="M153.6 716.8h713.6v-518.4h-713.6v518.4zM73.6 601.6h-73.6v268.8h272v-73.6h-198.4v-195.2zM1024 601.6h-73.6v192h-201.6v73.6h275.2v-265.6zM1024 25.6h-272v73.6h198.4v195.2h73.6v-268.8zM275.2 28.8h-275.2v265.6h73.6v-192h201.6v-73.6z" />
<glyph unicode="&#xe914;" glyph-name="icon-gif" d="M313.6 412.8h57.6v-60.8c-12.8-3.2-25.6-3.2-41.6-3.2-25.6 0-44.8 9.6-57.6 25.6s-19.2 41.6-19.2 73.6c0 32 9.6 54.4 25.6 73.6s38.4 28.8 64 28.8c22.4 0 44.8-6.4 67.2-16l22.4 51.2c-28.8 12.8-57.6 19.2-89.6 19.2-48 0-86.4-12.8-115.2-41.6-28.8-25.6-41.6-64-41.6-112s12.8-86.4 35.2-112c22.4-25.6 57.6-38.4 102.4-38.4 19.2 0 35.2 0 51.2 3.2s35.2 6.4 54.4 12.8v153.6h-115.2v-57.6zM480 560l35.2-16v-192l-35.2-16v-35.2h134.4v35.2l-35.2 16v192l35.2 16v35.2h-134.4zM665.6 300.8h60.8v115.2h102.4v51.2h-102.4v76.8h108.8v51.2h-169.6zM800 928h-576c-121.6 0-224-102.4-224-224v-512c0-121.6 102.4-224 224-224h576c121.6 0 224 102.4 224 224v512c0 121.6-102.4 224-224 224zM931.2 192c0-70.4-57.6-128-128-128h-582.4c-70.4 0-128 57.6-128 128v512c0 70.4 57.6 128 128 128h579.2c70.4 0 128-57.6 128-128v-512z" />
<glyph unicode="&#xe915;" glyph-name="icon-headphones" d="M933.632 146.816c0-33.12-27.104-60.256-60.256-60.256h-27.104c18.080 51.2 27.104 105.44 27.104 165.632 0 48.16-6.016 93.344-18.080 135.52h18.080c33.12 0 60.256-27.104 60.256-60.256v-180.704zM780.032 86.56h-27.104c-33.12 0-60.256 27.104-60.256 60.256v180.704c0 33.12 27.104 60.256 60.256 60.256h39.168c15.072-42.144 21.088-87.328 21.088-135.52 0-60.256-12.032-117.472-33.12-165.632v0zM168.672 387.744c-12.032-42.144-18.080-87.328-18.080-135.52 0-60.256 12.032-114.432 27.104-165.632h-27.104c-33.12 0-60.256 27.104-60.256 60.256v180.704c0 33.12 27.104 60.256 60.256 60.256h18.080zM231.904 387.744h39.168c33.12 0 60.256-27.104 60.256-60.256v-180.704c0-33.12-27.104-60.256-60.256-60.256h-27.104c-21.088 48.16-33.12 105.44-33.12 165.632 0 48.16 9.056 93.344 21.088 135.52v0zM933.632 463.072c0 225.888-189.728 406.56-421.632 406.56s-421.632-180.704-421.632-406.56c0-9.056 0-21.088 3.040-30.112-36.128-21.088-63.232-60.256-63.232-105.44v-180.704c0-66.272 54.24-120.48 120.48-120.48 0 0 120.48 0 120.48 0 63.232 3.040 120.48 57.216 120.48 120.48v180.704c0 66.272-54.24 120.48-120.48 120.48h-120.48c0 201.76 162.656 361.44 361.44 361.44s361.44-147.584 361.44-361.44h-120.48c-66.272 0-120.48-54.24-120.48-120.48v-180.704c0-63.232 57.216-117.472 120.48-120.48 0 0 120.48 0 120.48 0 66.272 0 120.48 54.24 120.48 120.48v180.704c0 45.184-24.096 84.32-63.232 105.44 3.040 9.056 3.040 21.088 3.040 30.112z" />
<glyph unicode="&#xe916;" glyph-name="icon-heart-empty" d="M310.4 819.2c-147.2 0-246.4-134.4-246.4-284.8 0-256 195.2-361.6 448-524.8 252.8 163.2 448 268.8 448 524.8 0 150.4-99.2 284.8-246.4 284.8-92.8 0-169.6-51.2-201.6-83.2-32 32-108.8 83.2-201.6 83.2z" />
<glyph unicode="&#xe917;" glyph-name="icon-hold" d="M64 512h896c35.2 0 64-28.8 64-64v0c0-35.2-28.8-64-64-64h-896c-35.2 0-64 28.8-64 64v0c0 35.2 28.8 64 64 64z" />
<glyph unicode="&#xe918;" glyph-name="icon-instagram" d="M512 867.808c136.8 0 152.992-0.608 206.784-3.008 50.016-2.208 76.992-10.592 95.008-17.6 23.808-9.216 40.992-20.416 58.784-38.208 18.016-18.016 28.992-35.008 38.4-58.816 7.008-18.016 15.392-45.184 17.6-95.008 2.4-54.016 3.008-70.208 3.008-206.816s-0.608-152.992-3.008-206.816c-2.208-50.016-10.592-76.992-17.6-95.008-9.216-23.808-20.384-40.992-38.208-58.784-18.016-18.016-35.008-28.992-58.784-38.4-18.016-7.008-45.216-15.392-95.008-17.6-54.016-2.4-70.208-3.008-206.816-3.008s-152.992 0.608-206.816 3.008c-50.016 2.208-76.992 10.592-95.008 17.6-23.808 9.216-40.992 20.384-58.816 38.208-18.016 18.016-28.992 35.008-38.4 58.784-7.008 18.016-15.392 45.216-17.6 95.008-2.4 54.016-3.008 70.208-3.008 206.816s0.608 152.992 3.008 206.816c2.208 50.016 10.592 76.992 17.6 95.008 9.216 23.808 20.416 40.992 38.208 58.816 18.016 18.016 35.008 28.992 58.816 38.4 18.016 7.008 45.184 15.392 95.008 17.6 53.792 2.4 70.016 3.008 206.816 3.008zM512 960c-139.008 0-156.384-0.608-211.008-3.008-54.4-2.4-91.808-11.2-124.192-23.808-33.792-13.184-62.4-30.592-90.784-59.2-28.608-28.416-46.016-56.992-59.2-90.592-12.608-32.608-21.408-69.792-23.808-124.192-2.4-54.816-3.008-72.192-3.008-211.2s0.608-156.384 3.008-211.008c2.4-54.4 11.2-91.808 23.808-124.192 13.216-33.792 30.592-62.4 59.2-90.784 28.384-28.384 56.992-46.016 90.592-59.008 32.608-12.608 69.792-21.408 124.192-23.808 54.592-2.4 72-3.008 211.008-3.008s156.416 0.608 211.008 3.008c54.4 2.4 91.808 11.2 124.192 23.808 33.6 12.992 62.208 30.592 90.592 59.008s46.016 56.992 59.008 90.592c12.608 32.608 21.408 69.792 23.808 124.192 2.4 54.592 3.008 72 3.008 211.008s-0.608 156.384-3.008 211.008c-2.4 54.4-11.2 91.808-23.808 124.192-12.608 34.016-30.016 62.592-58.592 91.008-28.384 28.384-56.992 46.016-90.592 59.008-32.608 12.608-69.792 21.408-124.192 23.808-54.784 2.592-72.192 3.2-211.2 3.2v0zM512 711.008c-145.184 0-263.008-117.792-263.008-263.008s117.792-263.008 263.008-263.008 263.008 117.792 263.008 263.008c0 145.184-117.792 263.008-263.008 263.008zM512 277.408c-94.208 0-170.592 76.384-170.592 170.592s76.384 170.592 170.592 170.592c94.208 0 170.592-76.384 170.592-170.592s-76.384-170.592-170.592-170.592zM846.784 721.408c0-33.92-27.488-61.408-61.408-61.408s-61.408 27.488-61.408 61.408c0 33.92 27.488 61.408 61.408 61.408s61.408-27.488 61.408-61.408z" />
<glyph unicode="&#xe919;" glyph-name="icon-invite" d="M448 390.4c-153.6 0-278.4 124.8-278.4 278.4s124.8 278.4 278.4 278.4c0 0 0 0 0 0 153.6 0 278.4-124.8 278.4-278.4s-124.8-278.4-278.4-278.4zM675.2-6.4c0-16 3.2-32 12.8-48h-547.2c-76.8 0-140.8 64-140.8 140.8v0 41.6c0 134.4 80 249.6 192 323.2 118.4-140.8 329.6-160 473.6-38.4 3.2 3.2 9.6 6.4 12.8 12.8-3.2-6.4-3.2-16-3.2-25.6v-105.6h-105.6c-54.4 0-99.2-44.8-99.2-99.2s44.8-99.2 99.2-99.2h105.6v-102.4zM819.2 243.2h156.8c25.6 0 48-19.2 48-44.8 0 0 0 0 0 0 0-25.6-19.2-48-44.8-48 0 0 0 0 0 0h-156.8v-156.8c0-25.6-19.2-48-44.8-48 0 0 0 0 0 0-25.6 0-48 19.2-48 44.8 0 0 0 0 0 0v156.8h-156.8c-25.6 0-48 19.2-48 44.8 0 0 0 0 0 0 0 25.6 19.2 48 44.8 48 0 0 0 0 0 0h156.8v156.8c0 25.6 19.2 48 44.8 48 0 0 0 0 0 0 25.6 0 48-19.2 48-44.8 0 0 0 0 0 0v-156.8z" />
<glyph unicode="&#xe91a;" glyph-name="icon-link" d="M611.36 547.36c-15.072 15.072-42.144 15.072-57.216 0l-141.568-141.568c-15.072-15.072-15.072-42.144 0-57.216s42.144-15.072 57.216 0l141.568 141.568c18.080 15.072 18.080 42.144 0 57.216v0zM927.616 821.472l-39.168 39.168c-48.16 48.16-129.504 48.16-180.704 0l-201.76-201.76c-33.12-33.12-45.184-78.304-33.12-123.488l6.016-21.088 289.12 289.12c18.080 18.080 45.184 18.080 63.232 0l39.168-39.168c18.080-18.080 18.080-45.184 0-63.232l-289.12-289.12 21.088-6.016c42.144-12.032 90.368 0 123.488 33.12l201.76 201.76c48.16 51.2 48.16 132.512 0 180.704v0zM259.040 92.64c-18.080-18.080-45.184-18.080-63.232 0l-39.168 39.168c-18.080 18.080-18.080 45.184 0 63.232l289.12 289.12-21.088 6.016c-42.144 12.032-90.368 0-123.488-33.12l-201.76-201.76c-48.16-48.16-48.16-129.504 0-180.704l39.168-39.168c48.16-48.16 129.504-48.16 180.704 0l201.76 201.76c33.12 33.12 45.184 78.304 33.12 123.488l-6.016 21.088-289.12-289.12z" />
<glyph unicode="&#xe91b;" glyph-name="icon-lock" d="M921.6 403.2v-361.6c0-57.6-44.8-102.4-99.2-102.4h-620.8c-54.4 0-99.2 44.8-99.2 102.4v361.6c0 57.6 44.8 102.4 99.2 102.4h620.8c54.4 0 99.2-48 99.2-102.4zM320 704v-121.6c0-22.4-16-41.6-38.4-41.6h-28.8c-22.4 0-38.4 19.2-38.4 38.4v121.6c0 166.4 131.2 256 291.2 256s291.2-89.6 291.2-256v-121.6c0-22.4-16-41.6-38.4-41.6h-28.8c-22.4 0-38.4 19.2-38.4 38.4v121.6c0 105.6-83.2 144-182.4 144-108.8 6.4-192-32-188.8-137.6z" />
<glyph unicode="&#xe91c;" glyph-name="icon-map-marker" d="M512 484.128c-51.2 0-90.368 42.144-90.368 90.368s42.144 90.368 90.368 90.368 90.368-42.144 90.368-90.368-39.168-90.368-90.368-90.368v0zM512 737.12c-90.368 0-162.656-72.288-162.656-162.656s72.288-162.656 162.656-162.656 162.656 72.288 162.656 162.656c0 90.368-72.288 162.656-162.656 162.656v0zM512 38.4c-57.216 0-313.216 415.616-313.216 536.096 0 171.68 141.568 313.216 313.216 313.216s313.216-141.568 313.216-313.216c0-117.472-256-536.096-313.216-536.096v0zM512 960c-213.856 0-385.504-171.68-385.504-385.504 0-147.584 310.24-638.496 385.504-638.496s385.504 493.92 385.504 638.496c0 213.856-171.68 385.504-385.504 385.504v0z" />
<glyph unicode="&#xe91d;" glyph-name="icon-menu-down" d="M508.96 279.328l-436.704 421.632c-18.080 18.080-42.144 18.080-60.256 0s-18.080-42.144 0-60.256l463.84-448.768c9.056-9.056 24.096-12.032 33.12-12.032s24.096 3.040 33.12 12.032l463.84 448.768c18.080 18.080 18.080 42.144 0 60.256s-42.144 18.080-60.256 0l-436.704-421.632z" />
<glyph unicode="&#xe91e;" glyph-name="icon-menu-hamburger" d="M87.328 493.184c-24.096 0-45.184-21.088-45.184-48.16s18.080-48.16 45.184-48.16h849.312c24.096 0 45.184 21.088 45.184 48.16s-18.080 48.16-45.184 48.16h-849.312zM87.328 131.744c-24.096 0-45.184-21.088-45.184-48.16s18.080-48.16 45.184-48.16h849.312c24.096 0 45.184 21.088 45.184 48.16s-18.080 48.16-45.184 48.16h-849.312zM87.328 860.64c-24.096 0-45.184-21.088-45.184-48.16s18.080-48.16 45.184-48.16h849.312c24.096 0 45.184 21.088 45.184 48.16s-18.080 48.16-45.184 48.16h-849.312z" />
<glyph unicode="&#xe91f;" glyph-name="icon-menu-left" d="M764.96 8.288c15.072-18.080 15.072-45.184 0-60.256-15.072-18.080-42.144-18.080-57.216 0l-448.768 466.816c-9.056 9.056-12.032 21.088-12.032 33.12s3.040 24.096 12.032 33.12l448.768 466.816c15.072 18.080 42.144 18.080 57.216 0s15.072-45.184 0-60.256l-421.632-439.712 421.632-439.712z" />
<glyph unicode="&#xe920;" glyph-name="icon-menu-right" d="M259.040 8.288c-15.072-18.080-15.072-45.184 0-60.256 15.072-18.080 42.144-18.080 57.216 0l448.768 466.816c9.056 9.056 12.032 21.088 12.032 33.12s-3.040 24.096-12.032 33.12l-448.768 466.816c-15.072 18.080-42.144 18.080-57.216 0s-15.072-45.184 0-60.256l421.632-439.712-421.632-439.712z" />
<glyph unicode="&#xe921;" glyph-name="icon-menu-up" d="M951.712 195.040c18.080-18.080 42.144-18.080 60.256 0s18.080 42.144 0 60.256l-463.84 448.768c-9.056 9.056-24.096 12.032-33.12 12.032s-24.096-3.040-33.12-12.032l-463.84-448.768c-18.080-18.080-18.080-42.144 0-60.256s42.144-18.080 60.256 0l442.72 421.632 430.688-421.632z" />
<glyph unicode="&#xe922;" glyph-name="icon-music" d="M864.384 192c-87.328-48.16-195.744-42.144-240.928 9.056-42.144 51.2-3.040 132.512 87.328 180.704s171.68 48.16 219.872 6.016c51.2-42.144 9.056-153.6-66.272-195.744v0zM319.232 71.52c-90.368-51.2-192.768-48.16-234.912 3.040s-6.016 132.512 84.32 180.704c87.328 48.16 168.672 48.16 222.88 9.056s9.056-147.584-72.288-192.768v0zM987.872 926.88c-6.016 0-9.056 0-15.072-3.040l-524.032-123.488c-18.080 0-36.128-15.072-36.128-36.128v-442.72l6.016 3.040c-69.28 45.184-177.696 42.144-274.080-6.016-123.488-66.272-180.704-186.72-126.496-274.080 54.24-84.32 195.744-102.4 319.232-36.128 75.296 39.168 132.512 117.472 144.544 186.72v548.128l-3.040-3.040 475.872 111.456-6.016 3.040v-406.56l6.016 3.040c-69.28 45.184-177.696 42.144-274.080-6.016-123.488-66.272-180.704-186.72-126.496-274.080s201.76-105.44 325.28-42.144c84.32 45.184 132.512 114.432 138.528 189.728v572.256c6.016 21.088-9.056 36.128-30.112 36.128v0z" />
<glyph unicode="&#xe923;" glyph-name="icon-oftheday" d="M240.928 505.216h60.256l-3.040 3.040v-60.256l3.040 3.040h-60.256l3.040-3.040v60.256l-3.040-3.040zM271.072 384.768c51.2 0 93.344 42.144 93.344 93.344s-42.144 93.344-93.344 93.344-93.344-42.144-93.344-93.344c0-51.2 42.144-93.344 93.344-93.344v0zM240.928 267.296h60.256l-3.040 3.040v-60.256l3.040 3.040h-60.256l3.040-3.040v60.256l-3.040-3.040zM271.072 146.816c51.2 0 93.344 42.144 93.344 93.344s-42.144 93.344-93.344 93.344-93.344-42.144-93.344-93.344 42.144-93.344 93.344-93.344v0zM481.888 505.216h60.256l-3.040 3.040v-60.256l3.040 3.040h-60.256l3.040-3.040v60.256l-3.040-3.040zM512 384.768c51.2 0 93.344 42.144 93.344 93.344s-42.144 93.344-93.344 93.344-93.344-42.144-93.344-93.344c0-51.2 42.144-93.344 93.344-93.344v0zM903.52 749.184h-783.072l3.040-3.040v60.256c0 30.112 27.104 57.216 57.216 57.216h662.56c30.112 0 57.216-24.096 57.216-57.216v-60.256l3.040 3.040zM900.512 89.6c0-30.112-27.104-57.216-57.216-57.216h-662.56c-30.112 0-57.216 24.096-57.216 57.216v596.32l-3.040-3.040h783.072l-3.040 3.040v-596.32zM843.296 926.88h-662.56c-69.28 0-123.488-54.24-123.488-123.488v-713.76c0-66.272 54.24-123.488 123.488-123.488h662.56c69.28 0 123.488 54.24 123.488 123.488v713.76c0 69.28-54.24 123.488-123.488 123.488v0zM481.888 267.296h60.256l-3.040 3.040v-60.256l3.040 3.040h-60.256l3.040-3.040v60.256l-3.040-3.040zM512 146.816c51.2 0 93.344 42.144 93.344 93.344s-42.144 93.344-93.344 93.344-93.344-42.144-93.344-93.344 42.144-93.344 93.344-93.344v0zM722.816 267.296h60.256l-3.040 3.040v-60.256l3.040 3.040h-60.256l3.040-3.040v60.256l-3.040-3.040zM752.928 146.816c51.2 0 93.344 42.144 93.344 93.344s-42.144 93.344-93.344 93.344-93.344-42.144-93.344-93.344 42.144-93.344 93.344-93.344v0zM722.816 505.216h60.256l-3.040 3.040v-60.256l3.040 3.040h-60.256l3.040-3.040v60.256l-3.040-3.040zM752.928 384.768c51.2 0 93.344 42.144 93.344 93.344s-42.144 93.344-93.344 93.344-93.344-42.144-93.344-93.344c0-51.2 42.144-93.344 93.344-93.344v0z" />
<glyph unicode="&#xe924;" glyph-name="icon-ok-circle" d="M412.64 255.232l9.056-9.056 331.296 331.296c12.032 12.032 12.032 36.128 0 48.16s-36.128 12.032-48.16 0l-289.12-289.12h18.080l-108.416 108.416c-12.032 12.032-36.128 12.032-48.16 0s-12.032-36.128 0-48.16l135.52-141.568zM512-64c283.104 0 512 228.896 512 512s-228.896 512-512 512-512-228.896-512-512 228.896-512 512-512v0zM512 2.272c-246.944 0-445.728 198.784-445.728 445.728s198.784 445.728 445.728 445.728 445.728-198.784 445.728-445.728-198.784-445.728-445.728-445.728v0z" />
<glyph unicode="&#xe925;" glyph-name="icon-ok" d="M15.072 363.68c-18.080 18.080-18.080 51.2 0 69.28s51.2 18.080 69.28 0l234.912-234.912 623.456 623.456c18.080 18.080 51.2 18.080 69.28 0s18.080-51.2 0-69.28l-692.704-692.704-304.16 304.16z" />
<glyph unicode="&#xe926;" glyph-name="icon-option-horizontal" d="M295.168 448c0 39.168-33.12 72.288-72.288 72.288s-72.288-33.12-72.288-72.288 33.12-72.288 72.288-72.288c39.168 0 72.288 33.12 72.288 72.288zM584.288 448c0 39.168-33.12 72.288-72.288 72.288s-72.288-33.12-72.288-72.288 33.12-72.288 72.288-72.288 72.288 33.12 72.288 72.288zM873.44 448c0 39.168-33.12 72.288-72.288 72.288s-72.288-33.12-72.288-72.288 33.12-72.288 72.288-72.288c39.168 0 72.288 33.12 72.288 72.288z" />
<glyph unicode="&#xe927;" glyph-name="icon-option-vertical" d="M512 664.832c39.168 0 72.288 33.12 72.288 72.288s-33.12 72.288-72.288 72.288-72.288-33.12-72.288-72.288 33.12-72.288 72.288-72.288zM512 375.712c39.168 0 72.288 33.12 72.288 72.288s-33.12 72.288-72.288 72.288-72.288-33.12-72.288-72.288 33.12-72.288 72.288-72.288zM512 86.56c39.168 0 72.288 33.12 72.288 72.288s-33.12 72.288-72.288 72.288-72.288-33.12-72.288-72.288 33.12-72.288 72.288-72.288z" />
<glyph unicode="&#xe928;" glyph-name="icon-packer" d="M883.2 563.2c-51.2 182.4-224 320-432 320-249.6 0-451.2 19.2-451.2 19.2v-467.2c0-265.6 204.8-441.6 451.2-441.6s448 198.4 451.2 441.6l121.6 60.8-140.8 67.2zM496 224c-153.6 0-275.2 118.4-275.2 268.8s121.6 268.8 275.2 268.8 275.2-118.4 275.2-268.8-124.8-268.8-275.2-268.8v0zM604.8 492.8c0-60.096-48.704-108.8-108.8-108.8s-108.8 48.704-108.8 108.8c0 60.096 48.704 108.8 108.8 108.8s108.8-48.704 108.8-108.8z" />
<glyph unicode="&#xe929;" glyph-name="icon-pause" d="M758.4 819.2h-64c-44.8 0-80-38.4-80-80v-582.4c0-44.8 35.2-80 80-80h64c44.8 0 80 35.2 80 80v582.4c0 44.8-35.2 80-80 80zM329.6 819.2h-64c-44.8 0-80-38.4-80-80v-582.4c0-44.8 35.2-80 80-80h64c44.8 0 80 35.2 80 80v582.4c0 44.8-35.2 80-80 80z" />
<glyph unicode="&#xe92a;" glyph-name="icon-pencil" d="M472.832 342.56l-135.52-81.312c-3.040-3.040-9.056 3.040-6.016 6.016l81.312 132.512-12.032-3.040 69.28-69.28 3.040 15.072zM707.744 725.088l87.328-87.328v12.032l-280.096-280.096h12.032c-27.104 27.104-72.288 72.288-87.328 87.328v-12.032l280.096 280.096h-12.032zM807.168 812.416c6.016 6.016 18.080 6.016 24.096 0l51.2-51.2c6.016-6.016 6.016-18.080 0-24.096l-51.2-51.2h12.032l-87.328 90.368v-12.032l51.2 48.16zM379.488 463.072l-108.416-216.832c-12.032-33.12 15.072-60.256 45.184-45.184l216.832 108.416c9.056 3.040 21.088 6.016 27.104 15.072l385.504 385.504c21.088 21.088 21.088 60.256 0 81.312l-87.328 87.328c-24.096 21.088-60.256 21.088-81.312 0l-385.504-385.504c-6.016-12.032-12.032-21.088-12.032-30.112v0zM861.344 41.44h-704.768c-27.104 0-51.2 24.096-51.2 51.2v707.744c0 30.112 24.096 57.216 51.2 57.216h448.768v72.288h-448.768c-69.28 0-126.496-60.256-126.496-132.512v-707.744c0-69.28 57.216-126.496 126.496-126.496h704.768c69.28 0 132.512 57.216 132.512 126.496v448.768h-78.304v-448.768c3.040-24.096-24.096-48.16-54.24-48.16z" />
<glyph unicode="&#xe92b;" glyph-name="icon-phone" d="M713.76 932.896h-406.56c-57.216 0-102.4-48.16-102.4-105.44v-755.968c0-57.216 45.184-105.44 102.4-105.44h406.56c57.216 0 102.4 48.16 102.4 105.44v755.968c3.040 57.216-45.184 105.44-102.4 105.44v0zM752.928 68.512c0-21.088-18.080-39.168-39.168-39.168h-406.56c-21.088 0-39.168 18.080-39.168 39.168v126.496l-9.056-9.056h499.968l-9.056 9.056v-126.496h3.040zM262.016 740.128h499.968l-9.056 9.056v-499.968l9.056 9.056h-499.968l9.056-9.056v499.968l-9.056-9.056zM761.984 806.4h-499.968l9.056-9.056v30.112c0 21.088 18.080 39.168 39.168 39.168h406.56c21.088 0 39.168-18.080 39.168-39.168v-27.104l6.016 6.016zM469.856 110.688c0-24.096 18.080-42.144 42.144-42.144s42.144 18.080 42.144 42.144-18.080 42.144-42.144 42.144c-24.096 0-42.144-18.080-42.144-42.144z" />
<glyph unicode="&#xe92c;" glyph-name="icon-picture" d="M274.080 631.712c-30.112 0-54.24 24.096-54.24 54.24s24.096 54.24 54.24 54.24 54.24-24.096 54.24-54.24-24.096-54.24-54.24-54.24v0zM274.080 809.44c-69.28 0-123.488-54.24-123.488-123.488s54.24-123.488 123.488-123.488c69.28 0 123.488 54.24 123.488 123.488s-54.24 123.488-123.488 123.488v0zM933.632 417.888l-177.696 183.712h-6.016l-295.168-301.184h6.016l-120.48 123.488h-6.016l-237.92-219.872 9.056-3.040v605.344c0 30.112 24.096 54.24 54.24 54.24h713.76c30.112 0 54.24-24.096 54.24-54.24v-391.52l6.016 3.040zM924.64 89.6c0-30.112-24.096-54.24-54.24-54.24h-153.6l3.040-3.040-219.872 222.88v-6.016l252.96 252.96h-6.016l177.696-177.696v3.040-237.92zM153.6 35.36c-30.112 0-54.24 24.096-54.24 54.24v27.104l-3.040-3.040 237.92 210.816h-6.016l298.144-298.144 3.040 9.056h-475.872zM870.4 929.888h-716.8c-69.28 0-123.488-54.24-123.488-123.488v-713.76c0-69.28 54.24-123.488 123.488-123.488h713.76c69.28 0 123.488 54.24 123.488 123.488v713.76c3.040 69.28-51.2 123.488-120.48 123.488v0z" />
<glyph unicode="&#xe92d;" glyph-name="icon-play" d="M947.2 476.8l-649.6 393.6c-22.4 12.8-51.2-6.4-51.2-32v-784c0-25.6 25.6-41.6 48-28.8l649.6 390.4c25.6 16 25.6 48 3.2 60.8v0 0z" />
<glyph unicode="&#xe92e;" glyph-name="icon-playlist" d="M771.040 50.432c-105.44-60.256-228.896-57.216-277.088 12.032s0 183.712 102.4 243.968c105.44 60.256 234.912 57.216 280.096-12.032 51.2-69.28 0-183.712-105.44-243.968v0zM927.616 953.984c-21.088 0-39.168-15.072-39.168-36.128v-551.168l6.016 3.040c-78.304 57.216-207.84 57.216-319.232-6.016-141.568-78.304-204.8-225.888-144.544-328.288 60.256-105.44 222.88-123.488 367.456-42.144 105.44 60.256 171.68 159.616 168.672 252.96 0 0 0 0 0 0s0 0 0 0 0 3.040 0 3.040v671.616c0 18.080-18.080 33.12-39.168 33.12v0zM96.384 444.96h382.496c21.088 0 39.168 15.072 39.168 36.128s-18.080 36.128-39.168 36.128h-382.496c-21.088 0-39.168-15.072-39.168-36.128s18.080-36.128 39.168-36.128v0zM304.16 315.488h-207.84c-21.088 0-39.168-15.072-39.168-36.128s18.080-36.128 39.168-36.128h207.84c21.088 0 39.168 15.072 39.168 36.128-3.040 21.088-18.080 36.128-39.168 36.128v0zM96.384 646.784h626.432c21.088 0 39.168 15.072 39.168 36.128s-18.080 36.128-39.168 36.128h-626.432c-21.088 0-39.168-15.072-39.168-36.128s18.080-36.128 39.168-36.128v0zM96.384 848.544h626.432c21.088 0 39.168 15.072 39.168 36.128s-18.080 36.128-39.168 36.128h-626.432c-21.088 0-39.168-15.072-39.168-36.128s18.080-36.128 39.168-36.128v0z" />
<glyph unicode="&#xe92f;" glyph-name="icon-plus" d="M595.2 531.2v278.4c0 48-38.4 83.2-83.2 83.2-48 0-83.2-38.4-83.2-83.2v-278.4h-278.4c-48 0-83.2-38.4-83.2-83.2 0-48 38.4-83.2 83.2-83.2h278.4v-278.4c0-48 38.4-83.2 83.2-83.2 48 0 83.2 38.4 83.2 83.2v278.4h278.4c48 0 83.2 38.4 83.2 83.2 0 48-38.4 83.2-83.2 83.2h-278.4z" />
<glyph unicode="&#xe930;" glyph-name="icon-qq" d="M153.6 499.2c-3.2 6.4-3.2 16-3.2 28.8 0 6.4 3.2 16 6.4 28.8s9.6 19.2 12.8 25.6c0 9.6 0 19.2 3.2 28.8s6.4 19.2 12.8 25.6c0 54.4 19.2 108.8 54.4 166.4s76.8 96 124.8 118.4c51.2 25.6 115.2 38.4 185.6 38.4 51.2 0 102.4-9.6 153.6-32 19.2-6.4 35.2-16 51.2-28.8s28.8-22.4 41.6-32c12.8-9.6 22.4-25.6 32-38.4 9.6-16 16-28.8 25.6-41.6 6.4-12.8 12.8-28.8 19.2-48s9.6-35.2 16-51.2c3.2-16 6.4-35.2 12.8-57.6v-3.2c22.4-32 32-60.8 32-86.4 0-6.4-3.2-12.8-6.4-22.4s-6.4-16-6.4-22.4c0 0 0 0 0-3.2 0 0 0-3.2 3.2-3.2 0 0 0-3.2 0-3.2 28.8-44.8 51.2-83.2 70.4-121.6 16-38.4 25.6-76.8 25.6-118.4 0-16-3.2-35.2-9.6-57.6s-19.2-32-32-32c-3.2 0-6.4 0-9.6 3.2s-6.4 6.4-9.6 9.6c-3.2 3.2-6.4 9.6-9.6 16s-6.4 9.6-9.6 16-3.2 9.6-6.4 16c-3.2 6.4-3.2 9.6-6.4 9.6 0 0 0 0-3.2 0l-3.2-3.2c-22.4-57.6-48-102.4-76.8-128 6.4-6.4 19.2-16 35.2-22.4s28.8-16 38.4-22.4c9.6-9.6 16-22.4 19.2-38.4 0 0 0-3.2-3.2-9.6 0-3.2-3.2-6.4-3.2-9.6-25.6-38.4-83.2-54.4-172.8-54.4-19.2 0-41.6 3.2-64 6.4s-41.6 6.4-57.6 12.8c-16 3.2-35.2 9.6-60.8 16-6.4 3.2-9.6 3.2-12.8 3.2-6.4 0-12.8 3.2-25.6 3.2s-19.2 0-22.4 0c-16-16-38.4-28.8-73.6-38.4s-64-12.8-96-12.8c-12.8 0-25.6 0-38.4 0s-32 3.2-54.4 6.4-44.8 12.8-60.8 19.2c-16 6.4-28.8 12.8-41.6 22.4s-19.2 22.4-19.2 35.2c0 16 3.2 25.6 6.4 35.2 3.2 6.4 9.6 16 22.4 25.6 3.2 0 12.8 3.2 22.4 6.4 12.8 3.2 19.2 6.4 28.8 6.4 0 0 3.2 0 6.4 0 0 0 0 0 0 3.2v3.2c-19.2 3.2-38.4 25.6-60.8 60.8s-35.2 67.2-41.6 89.6l-3.2 3.2c0 0-3.2-3.2-6.4-12.8-6.4-16-16-28.8-32-41.6-12.8-12.8-28.8-19.2-44.8-22.4v0c0 0-3.2 0-3.2 3.2s-3.2 3.2-3.2 3.2c-9.6 19.2-12.8 38.4-12.8 57.6 0 105.6 48 192 144 265.6z" />
<glyph unicode="&#xe931;" glyph-name="icon-qrcode" d="M60.256-3.744h376.48v376.48h-376.48v-376.48zM135.52 297.44h225.888v-225.888h-225.888v225.888zM472.832 523.296h75.296v150.56h-75.296v-150.56zM60.256 408.832h219.872v75.296h-219.872v-75.296zM472.832 710.016h75.296v75.296h-75.296v-75.296zM472.832 824.48h75.296v75.296h-75.296v-75.296zM60.256 523.296h376.48v376.48h-376.48v-376.48zM135.52 824.48h225.888v-225.888h-225.888v225.888zM587.296 523.296h376.48v376.48h-376.48v-376.48zM662.56 824.48h225.888v-225.888h-225.888v225.888zM888.48 258.272h75.296v75.296h-75.296v-75.296zM888.48 71.52h-39.168v75.296h-75.296v-75.296h-75.296v-75.296h265.056v186.72h-75.296v-111.456zM701.728 146.816h75.296v75.296h-75.296v-75.296zM246.944 673.888v0c21.088 0 39.168 18.080 39.168 39.168s-18.080 39.168-39.168 39.168c-21.088 0-39.168-18.080-39.168-39.168 3.040-21.088 18.080-39.168 39.168-39.168v0zM358.4 408.832h75.296v75.296h-75.296v-75.296zM774.016 673.888v0c21.088 0 39.168 18.080 39.168 39.168s-18.080 39.168-39.168 39.168c-21.088 0-39.168-18.080-39.168-39.168s18.080-39.168 39.168-39.168v0zM246.944 146.816v0c21.088 0 39.168 18.080 39.168 39.168s-18.080 39.168-39.168 39.168c-21.088 0-39.168-18.080-39.168-39.168 3.040-24.096 18.080-39.168 39.168-39.168v0zM623.456 71.52h75.296v75.296h-75.296v-75.296zM623.456 336.544v-75.296h225.888v75.296h-75.296v75.296h-75.296v-75.296h-75.296zM623.456 408.832h75.296v75.296h-75.296v-39.168h-75.296v-75.296h75.296v39.168zM548.128 182.944h75.296v75.296h-75.296v114.432h-75.296v-376.48h150.56v75.296h-75.296v111.456zM774.016 408.832h75.296v75.296h-75.296v-75.296z" />
<glyph unicode="&#xe932;" glyph-name="icon-question-sign" d="M512-64c283.104 0 512 228.896 512 512s-228.896 512-512 512-512-228.896-512-512 228.896-512 512-512v0zM512 2.272c-246.944 0-445.728 198.784-445.728 445.728s198.784 445.728 445.728 445.728 445.728-198.784 445.728-445.728-198.784-445.728-445.728-445.728v0zM512 249.216c-24.096 0-45.184-21.088-45.184-45.184s21.088-45.184 45.184-45.184c24.096 0 45.184 21.088 45.184 45.184 0 27.104-21.088 45.184-45.184 45.184zM548.128 387.744l9.056 3.040c18.080 6.016 39.168 15.072 54.24 24.096 51.2 33.12 81.312 90.368 81.312 150.56 0 99.36-81.312 180.704-180.704 180.704s-180.704-81.312-180.704-180.704c0-21.088 18.080-39.168 39.168-39.168s39.168 18.080 39.168 39.168c0 57.216 45.184 102.4 102.4 102.4s102.4-45.184 102.4-102.4c0-33.12-18.080-66.272-45.184-84.32-18.080-12.032-36.128-18.080-57.216-18.080s-39.168-18.080-39.168-39.168v-87.328c0-21.088 15.072-39.168 36.128-39.168s36.128 18.080 36.128 39.168v51.2z" />
<glyph unicode="&#xe933;" glyph-name="icon-quotation" d="M153.6 755.2c-85.344 0-153.6-72.544-153.6-162.144v-128c0-89.6 68.256-166.4 153.6-166.4h55.456v-132.256c0-12.8 12.8-25.6 25.6-25.6 29.856 0 59.744 17.056 85.344 38.4s51.2 51.2 72.544 81.056c42.656 64 76.8 140.8 76.8 204.8v128c0 89.6-68.256 166.4-157.856 166.4l-157.856-4.256zM554.656 593.056v-128c0-89.6 68.256-166.4 153.6-166.4h55.456v-132.256c0-12.8 12.8-25.6 25.6-25.6 29.856 0 59.744 17.056 85.344 38.4s51.2 51.2 72.544 81.056c42.656 64 76.8 140.8 76.8 204.8v128c0 89.6-68.256 166.4-157.856 166.4h-162.144c-81.056-4.256-149.344-76.8-149.344-166.4z" />
<glyph unicode="&#xe934;" glyph-name="icon-radio" d="M512-64c-283.104 0-512 228.896-512 512s228.896 512 512 512 512-228.896 512-512-228.896-512-512-512zM512 914.816c-256 0-466.816-207.84-466.816-466.816 0-256 207.84-466.816 466.816-466.816 256 0 466.816 207.84 466.816 466.816 0 256-210.816 466.816-466.816 466.816zM512 83.584c-201.76 0-364.416 162.656-364.416 364.416s162.656 364.416 364.416 364.416c201.76 0 364.416-162.656 364.416-364.416s-162.656-364.416-364.416-364.416zM512 764.256c-174.688 0-316.256-141.568-316.256-316.256s141.568-316.256 316.256-316.256 316.256 141.568 316.256 316.256-141.568 316.256-316.256 316.256zM512 234.144c-117.472 0-213.856 96.384-213.856 213.856s96.384 213.856 213.856 213.856c117.472 0 213.856-96.384 213.856-213.856s-96.384-213.856-213.856-213.856zM512 616.672c-93.344 0-168.672-75.296-168.672-168.672s75.296-168.672 168.672-168.672 168.672 75.296 168.672 168.672-75.296 168.672-168.672 168.672zM554.144 448c0-23.296-18.848-42.144-42.144-42.144s-42.144 18.848-42.144 42.144c0 23.296 18.848 42.144 42.144 42.144s42.144-18.848 42.144-42.144z" />
<glyph unicode="&#xe935;" glyph-name="icon-random" d="M873.44 372.704c-9.056 9.056-27.104 3.040-27.104-12.032v-84.32c-183.712 6.016-259.040 63.232-379.488 219.872 0 0-3.040 3.040-6.016 6.016-132.512 171.68-225.888 231.904-442.72 231.904-9.056 0-15.072-6.016-15.072-15.072v-51.2c0-9.056 6.016-15.072 15.072-15.072 180.704 0 256-48.16 370.432-195.744 3.040-6.016 3.040-6.016 9.056-9.056 3.040-3.040 3.040-3.040 6.016-6.016 132.512-168.672 231.904-237.92 442.72-243.968v-87.328c0-12.032 15.072-24.096 27.104-12.032l144.544 126.496c6.016 6.016 6.016 21.088 0 27.104l-144.544 120.48zM521.056 496.16c6.016-6.016 15.072-6.016 24.096 0 78.304 81.312 156.64 117.472 304.16 126.496v-87.328c-3.040-12.032 12.032-21.088 27.104-12.032l144.544 126.496c6.016 6.016 6.016 21.088 0 27.104l-147.584 126.496c-9.056 9.056-27.104 3.040-27.104-12.032v-81.312c-174.688-6.016-274.080-54.24-367.456-153.6-6.016-6.016-6.016-15.072 0-24.096l42.144-36.128zM403.584 354.656l-39.168 33.12c-6.016 6.016-15.072 6.016-24.096-3.040-78.304-96.384-165.632-141.568-325.28-141.568-9.056 0-15.072-6.016-15.072-15.072v-48.16h3.040c0-9.056 6.016-15.072 15.072-15.072 183.712 0 292.128 54.24 385.504 171.68 9.056 3.040 9.056 12.032 0 18.080z" />
<glyph unicode="&#xe936;" glyph-name="icon-refresh" d="M1014.944 496.16l-141.568 141.568c-12.032 12.032-30.112 18.080-45.184 0l-141.568-141.568c-15.072-12.032-15.072-33.12 0-45.184 12.032-12.032 33.12-12.032 45.184 0l90.368 90.368c36.128-114.432 6.016-240.928-78.304-328.288-111.456-111.456-289.12-126.496-418.656-36.128-3.040 3.040-9.056 3.040-12.032 0l-33.12-33.12c-3.040-3.040-3.040-9.056 0-12.032 156.64-114.432 370.432-99.36 508.96 39.168 93.344 93.344 132.512 225.888 105.44 352.384l75.296-72.288c12.032-12.032 33.12-12.032 45.184 0s12.032 33.12 0 45.184zM846.304 417.888c0 15.072 0 33.12 0 48.16 3.040-15.072 0-30.112 0-48.16zM749.92 207.072c0 0 3.040 3.040 3.040 3.040-3.040 0-3.040-3.040-3.040-3.040s0 0 0 0zM337.312 444.96c-12.032 12.032-33.12 12.032-45.184 0l-90.368-90.368c-36.128 114.432-6.016 240.928 78.304 328.288 111.456 111.456 289.12 126.496 418.656 36.128 3.040-3.040 9.056-3.040 12.032 0l33.12 33.12c3.040 3.040 3.040 9.056 0 12.032-156.64 114.432-370.432 99.36-508.96-39.168-93.344-93.344-132.512-225.888-105.44-352.384l-75.296 72.288c-12.032 12.032-33.12 12.032-45.184 0s-12.032-33.12 0-45.184l141.568-141.568c3.040-3.040 3.040-3.040 6.016-6.016 12.032-9.056 27.104-9.056 39.168 6.016l141.568 141.568c15.072 12.032 15.072 33.12 0 45.184z" />
<glyph unicode="&#xe937;" glyph-name="icon-remove-circle" d="M653.568 264.288c6.016-6.016 15.072-9.056 21.088-9.056 9.056 0 15.072 3.040 21.088 9.056 12.032 12.032 12.032 30.112 0 42.144l-343.328 343.328c-12.032 12.032-30.112 12.032-42.144 0s-12.032-30.112 0-42.144l343.328-343.328zM310.176 264.288c6.016-6.016 15.072-9.056 21.088-9.056 9.056 0 15.072 3.040 21.088 9.056l343.328 343.328c12.032 12.032 12.032 30.112 0 42.144s-30.112 12.032-42.144 0l-343.328-343.328c-12.032-12.032-12.032-30.112 0-42.144v0zM512-64c283.104 0 512 228.896 512 512s-228.896 512-512 512-512-228.896-512-512 228.896-512 512-512v0zM512 2.272c-246.944 0-445.728 198.784-445.728 445.728s198.784 445.728 445.728 445.728 445.728-198.784 445.728-445.728-198.784-445.728-445.728-445.728v0z" />
<glyph unicode="&#xe938;" glyph-name="icon-repeat-one" d="M930.048 874.144c24.096 0 42.144 18.080 42.144 42.144s-18.080 42.144-42.144 42.144h-262.016c-6.016 0-12.032 0-21.088-3.040-12.032-6.016-21.088-18.080-21.088-39.168v-262.016c0-24.096 18.080-42.144 42.144-42.144s42.144 18.080 42.144 42.144v189.728l-15.072-9.056c147.584-69.28 243.968-219.872 243.968-385.504 0-234.912-192.768-427.68-427.68-427.68s-427.68 189.728-427.68 427.68c0 213.856 156.64 391.52 367.456 421.632h9.056v84.32h-12.032c-256-33.12-448.768-246.944-448.768-505.984 0-283.104 228.896-512 512-512s512 228.896 512 512c0 186.72-102.4 358.4-265.056 445.728l-6.016-21.088h177.696zM577.664 235.648v364.416h-162.656v-75.296h66.272v-292.128h96.384z" />
<glyph unicode="&#xe939;" glyph-name="icon-repeat" d="M930.656 875.68c24.096 0 42.144 18.080 42.144 42.144s-18.080 42.144-42.144 42.144h-262.016c-6.016 0-12.032 0-21.088-3.040-15.072-6.016-21.088-18.080-21.088-39.168v-259.040c0-24.096 18.080-42.144 42.144-42.144s42.144 18.080 42.144 42.144v186.72l-15.072-9.056c147.584-69.28 243.968-219.872 243.968-385.504 0-234.912-192.768-427.68-427.68-427.68s-427.68 189.728-427.68 427.68c0 213.856 156.64 391.52 367.456 421.632h9.056v84.32l-12.032-3.040c-256-33.12-448.768-246.944-448.768-505.984 0-283.104 228.896-512 512-512s512 228.896 512 512c0 186.72-102.4 358.4-265.056 445.728l-6.016-21.088h177.696v3.040z" />
<glyph unicode="&#xe93a;" glyph-name="icon-repost" d="M640 844.8c-28.8 28.8-76.8 28.8-108.8 0-28.8-28.8-28.8-76.8 0-108.8l166.4-166.4h-291.2c-188.8 0-342.4-153.6-342.4-345.6v-121.6c0-41.6 35.2-76.8 76.8-76.8s76.8 35.2 76.8 76.8v121.6c0 105.6 86.4 195.2 195.2 195.2h291.2l-166.4-166.4c-28.8-28.8-28.8-76.8 0-108.8 16-16 35.2-22.4 54.4-22.4s38.4 6.4 54.4 22.4l297.6 297.6c16 16 22.4 35.2 22.4 54.4s-6.4 38.4-22.4 54.4c-6.4-3.2-304 294.4-304 294.4z" />
<glyph unicode="&#xe93b;" glyph-name="icon-search" d="M915.2 112l-204.8 204.8c102.4 134.4 92.8 326.4-32 448-64 64-150.4 99.2-243.2 99.2-89.6 0-179.2-35.2-243.2-99.2-128-134.4-128-352 3.2-486.4 64-64 150.4-99.2 243.2-99.2 73.6 0 147.2 22.4 204.8 70.4l204.8-201.6c9.6-9.6 19.2-12.8 32-12.8s22.4 3.2 32 12.8c19.2 16 19.2 44.8 3.2 64v0zM438.4 272c-67.2 0-128 25.6-176 73.6-96 96-96 256 0 355.2 48 48 108.8 73.6 176 73.6s128-25.6 176-73.6c48-48 73.6-108.8 73.6-176s-25.6-128-73.6-176c-44.8-51.2-108.8-76.8-176-76.8z" />
<glyph unicode="&#xe93c;" glyph-name="icon-share" d="M472.832 821.472v-566.24c0-21.088 18.080-39.168 39.168-39.168s39.168 18.080 39.168 39.168v569.216l-9.056-3.040 114.432-138.528c15.072-15.072 39.168-15.072 57.216 0 15.072 15.072 15.072 39.168 0 54.24l-171.68 204.8c-9.056 9.056-18.080 12.032-30.112 12.032s-21.088-3.040-30.112-12.032l-171.68-207.84c-15.072-15.072-15.072-39.168 0-54.24s39.168-15.072 54.24 0l114.432 135.52-6.016 6.016zM888.48 544.384v-530.080l3.040 6.016h-761.984l3.040-6.016v530.080c0 21.088-18.080 39.168-39.168 39.168s-39.168-18.080-39.168-39.168v-563.2c0-21.088 18.080-39.168 39.168-39.168h828.256c21.088 0 39.168 18.080 39.168 39.168v563.2c0 21.088-18.080 39.168-39.168 39.168-15.072 0-33.12-18.080-33.12-39.168v0z" />
<glyph unicode="&#xe93d;" glyph-name="icon-shielding" d="M761.6 473.6c0-25.6-3.2-60.8-19.2-83.2l140.8-134.4c70.4 60.8 108.8 134.4 137.6 217.6-83.2 204.8-268.8 352-512 352-67.2 0-134.4-12.8-195.2-32l105.6-102.4c25.6 9.6 60.8 12.8 92.8 12.8 140.8 0 249.6-102.4 249.6-230.4zM60.8 870.4c-22.4-22.4-19.2-57.6 3.2-80l92.8-86.4c-83.2-60.8-121.6-140.8-156.8-230.4 83.2-204.8 268.8-352 512-352 76.8 0 147.2 12.8 214.4 35.2l121.6-115.2c22.4-22.4 57.6-22.4 80 0l-16-16c22.4 22.4 22.4 57.6 0 76.8l-790.4 752c-22.4 22.4-57.6 19.2-76.8-3.2l16 19.2zM294.4 572.8l76.8-70.4v-32c0-80 60.8-140.8 147.2-140.8 9.6 0 19.2 0 35.2 3.2l76.8-70.4c-35.2-19.2-67.2-25.6-105.6-25.6-137.6 0-243.2 102.4-243.2 230.4-12.8 41.6 0 73.6 12.8 105.6v0zM502.4 611.2l150.4-147.2v9.6c0 80-60.8 137.6-147.2 137.6 3.2 0 3.2 0-3.2 0v0z" />
<glyph unicode="&#xe93e;" glyph-name="icon-smile" d="M755.2 329.6c-16-54.4-48-96-92.8-131.2s-96-48-153.6-48-105.6 16-153.6 48-76.8 76.8-92.8 131.2c-3.2 9.6-3.2 22.4 3.2 32s12.8 16 25.6 22.4c9.6 3.2 22.4 3.2 32-3.2s16-12.8 22.4-25.6c9.6-35.2 32-64 60.8-86.4s64-32 102.4-32 70.4 9.6 102.4 32 51.2 51.2 60.8 86.4c3.2 12.8 9.6 19.2 22.4 25.6 9.6 6.4 22.4 6.4 32 3.2s19.2-9.6 25.6-22.4c6.4-9.6 6.4-22.4 3.2-32zM425.6 617.6c0-22.4-9.6-44.8-25.6-60.8s-35.2-25.6-60.8-25.6-44.8 9.6-60.8 25.6c-12.8 19.2-22.4 38.4-22.4 60.8s9.6 44.8 25.6 60.8 35.2 25.6 60.8 25.6 44.8-9.6 60.8-25.6c16-16 22.4-35.2 22.4-60.8zM768 617.6c0-22.4-9.6-44.8-25.6-60.8s-35.2-25.6-60.8-25.6c-22.4 0-44.8 9.6-60.8 25.6s-25.6 35.2-25.6 60.8 9.6 44.8 25.6 60.8c19.2 16 38.4 25.6 60.8 25.6s44.8-9.6 60.8-25.6 25.6-35.2 25.6-60.8zM937.6 448c0 57.6-12.8 112-35.2 166.4-22.4 51.2-54.4 99.2-89.6 137.6s-83.2 67.2-134.4 89.6c-54.4 22.4-108.8 32-166.4 32s-112-9.6-166.4-32-96-54.4-134.4-92.8-67.2-83.2-89.6-137.6-35.2-105.6-35.2-163.2 12.8-112 35.2-166.4c22.4-51.2 54.4-99.2 89.6-134.4s83.2-67.2 137.6-89.6c51.2-22.4 108.8-35.2 166.4-35.2s112 12.8 166.4 35.2c51.2 22.4 99.2 54.4 134.4 89.6s67.2 83.2 89.6 134.4c22.4 54.4 32 108.8 32 166.4zM1024 448c0-92.8-22.4-179.2-67.2-256-44.8-80-108.8-140.8-185.6-185.6-80-44.8-163.2-67.2-256-67.2s-179.2 22.4-256 67.2c-80 44.8-140.8 108.8-185.6 185.6s-73.6 163.2-73.6 256 22.4 179.2 67.2 256 108.8 140.8 188.8 188.8 163.2 67.2 256 67.2 179.2-22.4 256-67.2 140.8-108.8 185.6-185.6c48-80 70.4-166.4 70.4-259.2z" />
<glyph unicode="&#xe93f;" glyph-name="icon-star-empty" d="M1002.912 562.432c-3.040 15.072-15.072 24.096-30.112 27.104l-295.168 42.144-132.512 271.072c-6.016 12.032-18.080 21.088-33.12 21.088s-27.104-9.056-33.12-21.088l-132.512-271.072-295.168-42.144c-15.072-3.040-27.104-12.032-30.112-27.104s0-30.112 9.056-39.168l213.856-210.816-51.2-298.144c-3.040-15.072 3.040-30.112 15.072-36.128 12.032-9.056 27.104-9.056 39.168-3.040l262.016 141.568 262.016-141.568c12.032-6.016 27.104-6.016 39.168 3.040s18.080 24.096 15.072 36.128l-51.2 298.144 213.856 210.816c15.072 12.032 18.080 27.104 15.072 39.168v0zM713.76 354.656c-9.056-9.056-12.032-21.088-12.032-33.12l42.144-240.928-213.856 114.432c-12.032 6.016-24.096 6.016-36.128 0l-213.856-114.432 42.144 240.928c3.040 12.032-3.040 24.096-12.032 33.12l-171.68 171.68 237.92 36.128c12.032 3.040 24.096 9.056 27.104 21.088l105.44 219.872 105.44-219.872c6.016-12.032 15.072-18.080 27.104-21.088l237.92-36.128-165.632-171.68z" />
<glyph unicode="&#xe940;" glyph-name="icon-star" d="M1002.912 562.432c-3.040 15.072-15.072 24.096-30.112 27.104l-295.168 42.144-132.512 271.072c-6.016 12.032-18.080 21.088-33.12 21.088s-27.104-9.056-33.12-21.088l-132.512-271.072-295.168-42.144c-15.072-3.040-27.104-12.032-30.112-27.104s0-30.112 9.056-39.168l213.856-210.816-51.2-298.144c-3.040-15.072 3.040-30.112 15.072-36.128 12.032-9.056 27.104-9.056 39.168-3.040l262.016 141.568 262.016-141.568c12.032-6.016 27.104-6.016 39.168 3.040s18.080 24.096 15.072 36.128l-51.2 298.144 213.856 210.816c15.072 12.032 18.080 27.104 15.072 39.168z" />
<glyph unicode="&#xe941;" glyph-name="icon-step-backward" d="M836.192 734.112l-409.6-292.128v12.032l409.6-292.128c21.088-15.072 21.088-39.168 0-54.24-18.080-12.032-48.16-12.032-66.272 0l-433.696 310.24c-9.056 6.016-15.072 18.080-15.072 30.112 0 9.056 3.040 21.088 15.072 27.104l433.696 313.216c18.080 12.032 48.16 12.032 66.272 0 21.088-15.072 21.088-39.168 0-54.24v0zM251.904 779.296v-662.56c0-21.088-18.080-39.168-39.168-39.168s-39.168 18.080-39.168 39.168v662.56c0 21.088 18.080 39.168 39.168 39.168s39.168-18.080 39.168-39.168v0z" />
<glyph unicode="&#xe942;" glyph-name="icon-step-forward" d="M187.808 734.112l409.6-292.128v12.032l-409.6-292.128c-21.088-15.072-21.088-39.168 0-54.24 18.080-12.032 48.16-12.032 66.272 0l433.696 310.24c9.056 6.016 15.072 18.080 15.072 30.112 0 9.056-3.040 21.088-15.072 27.104l-433.696 313.216c-18.080 12.032-48.16 12.032-66.272 0-21.088-15.072-21.088-39.168 0-54.24v0zM772.096 779.296v-662.56c0-21.088 18.080-39.168 39.168-39.168s39.168 18.080 39.168 39.168v662.56c0 21.088-18.080 39.168-39.168 39.168s-39.168-18.080-39.168-39.168v0z" />
<glyph unicode="&#xe943;" glyph-name="icon-sv" d="M498.208 188.512v310.144c0 14.080 6.016 26.976 13.536 34.464 27.392 27.488 91.104 92.192 99.84 100.896 12.384 12.32 14.624 3.104 14.624-7.264v-175.488c0 0 230.048 228.064 241.632 239.584s25.088 19.296 35.424 19.296h50.592c-88.928 144.896-253.44 249.856-441.824 249.856-282.752 0-512-229.6-512-511.264 0-92.416 24.8-179.616 67.936-254.368 28.928 28.96 64.224 62.304 69.728 67.808 9.504 9.472 21.792 13.312 31.744 13.312h139.232c24.416 0 33.12 23.84 31.232 34.016-6.816 36.576-32.544 23.904-86.88 36.512-61.152 14.208-122.080 64.768-122.080 164.32s97.664 145.824 146.464 145.824h312.576c15.488 0-1.184-14.624-1.184-14.624s-102.816-101.344-100.832-99.328c2.016 1.952-12.928-13.856-30.048-13.856h-170.848c-24.992 0-31.232-15.456-30.080-29.344s13.472-30.304 67.712-34.688c88.032-7.136 152.928-59.52 153.184-151.712 0.288-104.992-92.544-162.080-153.856-162.080h-230.24c92.704-125.024 245.408-214.496 418.208-214.496 282.752 0 512 229.088 512 510.72 0 69.664-14.72 136.416-40.096 196.896-138.592-137.472-464.16-459.424-470.432-465.664-7.968-7.936-15.264-4.736-15.264 10.528z" />
<glyph unicode="&#xe944;" glyph-name="icon-tag" d="M409.6 875.68l-252.96-15.072c-30.112-3.040-54.24-24.096-54.24-54.24l-15.072-256c0-18.080 6.016-33.12 18.080-45.184l466.816-466.816c12.032-12.032 27.104-18.080 42.144-18.080s30.112 6.016 42.144 18.080l268.032 268.032c24.096 24.096 24.096 60.256 0 84.32l-469.856 466.816c-12.032 12.032-27.104 18.080-42.144 18.080 0 0 0 0-3.040 0zM870.4 339.584v21.088l-268.032-268.032h21.088l-466.816 466.816 3.040-12.032 15.072 256-15.072-15.072 252.96 15.072-12.032 3.040 469.856-466.816zM295.168 713.056c24.096 0 42.144-18.080 42.144-42.144s-18.080-42.144-42.144-42.144c-24.096 0-42.144 18.080-42.144 42.144 0 21.088 18.080 42.144 42.144 42.144z" />
<glyph unicode="&#xe945;" glyph-name="icon-time" d="M512 8.288c-243.968 0-439.712 195.744-439.712 439.712s195.744 439.712 439.712 439.712 439.712-195.744 439.712-439.712c0-243.968-195.744-439.712-439.712-439.712v0zM0 448c0-283.104 228.896-512 512-512s512 228.896 512 512c0 283.104-228.896 512-512 512s-512-228.896-512-512v0zM512 800.384c-21.088 0-36.128-15.072-36.128-36.128v-316.256l3.040 3.040h-252.96c-21.088 0-36.128-15.072-36.128-36.128s15.072-36.128 36.128-36.128h286.112c21.088 0 36.128 15.072 36.128 36.128v349.344c0 21.088-15.072 36.128-36.128 36.128v0z" />
<glyph unicode="&#xe946;" glyph-name="icon-trash" d="M851.2 704h-646.4c-19.2 0-32 16-32 32 0 19.2 16 32 32 32h646.4c19.2 0 32-16 32-32s-12.8-32-32-32zM819.2 64c0-35.2-28.8-64-67.2-64h-454.4c-35.2 0-67.2 28.8-67.2 64v576h585.6l3.2-576c-3.2 0 0 0 0 0zM428.8 864c0 19.2 16 32 32 32h128c19.2 0 32-16 32-32v-32h-195.2c3.2 0 3.2 32 3.2 32zM883.2 832h-195.2v64c0 35.2-28.8 64-67.2 64h-195.2c-35.2 0-67.2-28.8-67.2-64v-64h-195.2c-38.4 0-67.2-28.8-67.2-60.8v-64c0-35.2 28.8-64 67.2-64v-576c0-70.4 57.6-128 128-128h454.4c73.6 0 128 57.6 128 128v576c35.2 0 67.2 28.8 67.2 64v64c6.4 32-22.4 60.8-57.6 60.8 0 0 0 0 0 0zM528 64c19.2 0 32 16 32 32v384c0 19.2-16 32-32 32s-32-16-32-32v-384c-3.2-19.2 12.8-32 32-32zM364.8 64c19.2 0 32 16 32 32v384c0 19.2-16 32-32 32s-32-16-32-32v-384c-3.2-19.2 12.8-32 32-32zM688 64c19.2 0 32 16 32 32v384c0 19.2-16 32-32 32s-32-16-32-32v-384c0-19.2 16-32 32-32z" />
<glyph unicode="&#xe947;" glyph-name="icon-triangle-down" d="M512-9.152l-512 885.024h1024z" />
<glyph unicode="&#xe948;" glyph-name="icon-triangle-up" d="M1024 5.472h-1024l512 885.024z" />
<glyph unicode="&#xe949;" glyph-name="icon-trophy" d="M278.4 96h182.4v204.8c-44.8 19.2-89.6 44.8-128 83.2-3.2 0-3.2 0-6.4 0-102.4 0-176 35.2-227.2 108.8-44.8 67.2-67.2 163.2-67.2 297.6 0 22.4 19.2 41.6 44.8 41.6h147.2v73.6c0 12.8 9.6 22.4 22.4 22.4h531.2c12.8 0 22.4-9.6 22.4-22.4v-73.6h150.4c22.4 0 41.6-19.2 41.6-41.6 0-131.2-22.4-230.4-67.2-297.6-51.2-73.6-124.8-108.8-227.2-108.8-3.2 0-3.2 0-6.4 0-38.4-38.4-80-64-124.8-83.2v-204.8h182.4v-153.6h-470.4c0 0 0 153.6 0 153.6zM800 745.6v-105.6c0-60.8-12.8-115.2-38.4-163.2 38.4 9.6 70.4 32 92.8 64 32 44.8 48 112 51.2 201.6l-105.6 3.2zM265.6 480c-25.6 48-41.6 102.4-41.6 160v105.6h-102.4c3.2-89.6 22.4-160 51.2-201.6 22.4-35.2 51.2-54.4 92.8-64v0z" />
<glyph unicode="&#xe94a;" glyph-name="icon-twitter" d="M249.984 658.816c144.544-75.296 268.032-69.28 268.032-69.28s-45.184 162.656 96.384 234.912c144.544 72.288 243.968-48.16 243.968-48.16s24.096 6.016 45.184 15.072c18.080 6.016 45.184 18.080 45.184 18.080l-45.184-78.304 69.28 6.016c0 0-9.056-12.032-36.128-36.128s-39.168-39.168-39.168-39.168 9.056-195.744-93.344-346.368c-102.4-150.56-234.912-240.928-430.688-262.016-192.768-18.080-319.232 60.256-319.232 60.256s84.32 6.016 138.528 24.096c54.24 21.088 132.512 75.296 132.512 75.296s-111.456 33.12-150.56 72.288c-39.168 39.168-48.16 60.256-48.16 60.256h108.416c0 0-114.432 60.256-147.584 108.416s-36.128 96.384-36.128 96.384l84.32-33.12c0 0-69.28 96.384-78.304 168.672-9.056 75.296 12.032 114.432 12.032 114.432s33.12-69.28 180.704-141.568z" />
<glyph unicode="&#xe94b;" glyph-name="icon-upload" d="M704 272v0c0 9.6-6.4 19.2-12.8 28.8v0 0l-144 160c-9.6 9.6-22.4 16-35.2 16s-25.6-6.4-35.2-16v0l-144-160c-12.8-16-16-38.4-6.4-54.4s25.6-25.6 41.6-25.6h3.2c0 0 0 0 0 0h3.2c9.6 3.2 19.2 6.4 28.8 16l60.8 67.2v-246.4c0-25.6 22.4-48 48-48s48 22.4 48 48v246.4l60.8-67.2c6.4-6.4 16-12.8 28.8-16v0h3.2c0 0 0 0 0 0v0c25.6 0 48 19.2 48 48 0 0 0 0 0 0v0c3.2 0 3.2 0 3.2 3.2v0zM854.4 659.2c-54.4 137.6-185.6 236.8-342.4 236.8s-288-99.2-342.4-236.8c-102.4-32-169.6-124.8-169.6-230.4 0-134.4 108.8-243.2 240-243.2 25.6 0 48 22.4 48 48s-22.4 48-48 48c-80 0-144 64-144 144 0 44.8 22.4 89.6 57.6 115.2v0c6.4 6.4 12.8 9.6 19.2 12.8h3.2c3.2 0 6.4 3.2 9.6 3.2 0 0 3.2 0 3.2 0 3.2 0 6.4 3.2 9.6 3.2s3.2 0 6.4 0 6.4 0 6.4 3.2c3.2 0 6.4 0 6.4 0 3.2 0 3.2 0 6.4 0s9.6 0 12.8 0c0 0 3.2 0 3.2 0 0 9.6 3.2 16 6.4 25.6 0 3.2 0 3.2 3.2 6.4 3.2 12.8 6.4 19.2 6.4 25.6 0 3.2 0 3.2 3.2 6.4 3.2 6.4 3.2 12.8 6.4 19.2 0 0 0 3.2 3.2 3.2 3.2 6.4 6.4 12.8 9.6 19.2 48 76.8 134.4 131.2 233.6 131.2s185.6-54.4 233.6-134.4c3.2-6.4 6.4-12.8 9.6-19.2 0 0 0-3.2 3.2-3.2 3.2-6.4 6.4-12.8 6.4-19.2 0-3.2 0-3.2 3.2-6.4 3.2-6.4 3.2-12.8 6.4-19.2 0-3.2 0-3.2 3.2-6.4 3.2-6.4 3.2-16 6.4-25.6 0 0 3.2 0 3.2 0 3.2 0 9.6 0 12.8 0s3.2 0 6.4 0 6.4 0 6.4 0 6.4 0 6.4-3.2c3.2 0 3.2 0 6.4 0s6.4-3.2 9.6-3.2h3.2c6.4-3.2 12.8-6.4 22.4-9.6v0c3.2-3.2 6.4-3.2 9.6-6.4v0c35.2-28.8 57.6-70.4 57.6-115.2 0-80-64-144-144-144-25.6 0-48-22.4-48-48s22.4-48 48-48c131.2 0 240 108.8 240 243.2 0 102.4-67.2 195.2-169.6 227.2z" />
<glyph unicode="&#xe94c;" glyph-name="icon-user" d="M512-24.832c216.832 0 388.512 36.128 388.512 132.512 0 99.36-108.416 222.88-237.92 289.12l-24.096 12.032v-6.016l24.096 15.072c78.304 51.2 126.496 135.52 126.496 228.896 0 150.56-120.48 271.072-271.072 271.072s-271.072-120.48-271.072-271.072c0-93.344 48.16-177.696 126.496-228.896l24.096-15.072v6.016l-24.096-12.032c-132.512-66.272-243.968-189.728-243.968-289.12-6.016-96.384 165.632-132.512 382.496-132.512v0zM313.216 649.76c0 111.456 90.368 201.76 201.76 201.76s201.76-90.368 201.76-201.76c0-111.456-90.368-201.76-201.76-201.76s-201.76 90.368-201.76 201.76v0zM192.768 113.696c6.016 102.4 204.8 256 322.272 256 114.432 0 310.24-153.6 316.256-256v-6.016l-3.040-3.040c-27.104-30.112-159.616-57.216-316.256-57.216s-286.112 27.104-316.256 57.216l-6.016 6.016 3.040 3.040z" />
<glyph unicode="&#xe94d;" glyph-name="icon-volume-down" d="M463.744 104.608l-231.904 150.56v385.504l231.904 150.56v-686.688zM165.6 345.568c0-18.080-15.072-33.12-33.12-33.12h-33.12c-18.080 0-33.12 15.072-33.12 33.12v204.8c0 18.080 15.072 33.12 33.12 33.12h33.12c18.080 0 33.12-15.072 33.12-33.12v-204.8zM463.744 857.568l-298.144-204.8h-99.36c-36.128 0-66.272-30.112-66.272-69.28v-274.080c0-39.168 30.112-69.28 66.272-69.28h99.36l298.144-204.8c36.128 0 66.272 30.112 66.272 69.28v686.688c0 36.128-30.112 66.272-66.272 66.272v0zM825.184 447.968c0 120.48-87.328 219.872-198.784 234.912v-69.28c75.296-15.072 132.512-84.32 132.512-168.672s-57.216-150.56-132.512-168.672v-69.28c114.432 21.088 198.784 120.48 198.784 240.928v0z" />
<glyph unicode="&#xe94e;" glyph-name="icon-volume-none" d="M463.744 104.608l-231.904 150.56v385.504l231.904 150.56v-686.688zM165.6 345.568c0-18.080-15.072-33.12-33.12-33.12h-33.12c-18.080 0-33.12 15.072-33.12 33.12v204.8c0 18.080 15.072 33.12 33.12 33.12h33.12c18.080 0 33.12-15.072 33.12-33.12v-204.8zM463.744 857.568l-298.144-204.8h-99.36c-36.128 0-66.272-30.112-66.272-69.28v-274.080c0-39.168 30.112-69.28 66.272-69.28h99.36l298.144-204.8c36.128 0 66.272 30.112 66.272 69.28v686.688c0 36.128-30.112 66.272-66.272 66.272v0z" />
<glyph unicode="&#xe94f;" glyph-name="icon-volume-off" d="M463.744 104.608l-231.904 150.56v385.504l231.904 150.56v-686.688zM165.6 345.568c0-18.080-15.072-33.12-33.12-33.12h-33.12c-18.080 0-33.12 15.072-33.12 33.12v204.8c0 18.080 15.072 33.12 33.12 33.12h33.12c18.080 0 33.12-15.072 33.12-33.12v-204.8zM463.744 857.568l-298.144-204.8h-99.36c-36.128 0-66.272-30.112-66.272-69.28v-274.080c0-39.168 30.112-69.28 66.272-69.28h99.36l298.144-204.8c36.128 0 66.272 30.112 66.272 69.28v686.688c0 36.128-30.112 66.272-66.272 66.272v0zM846.304 448l135.52 138.528c15.072 15.072 15.072 39.168 3.040 51.2s-36.128 12.032-51.2-3.040l-135.52-138.528-135.52 138.528c-15.072 15.072-36.128 15.072-51.2 3.040-12.032-12.032-12.032-36.128 3.040-51.2l138.528-138.528-135.52-138.528c-15.072-15.072-15.072-39.168-3.040-51.2s36.128-12.032 51.2 3.040l135.52 138.528 135.52-138.528c15.072-15.072 36.128-15.072 51.2-3.040 12.032 12.032 12.032 36.128-3.040 51.2l-138.528 138.528z" />
<glyph unicode="&#xe950;" glyph-name="icon-volume-up" d="M463.744 104.608l-231.904 150.56v385.504l231.904 150.56v-686.688zM165.6 345.568c0-18.080-15.072-33.12-33.12-33.12h-33.12c-18.080 0-33.12 15.072-33.12 33.12v204.8c0 18.080 15.072 33.12 33.12 33.12h33.12c18.080 0 33.12-15.072 33.12-33.12v-204.8zM463.744 857.568l-298.144-204.8h-99.36c-36.128 0-66.272-30.112-66.272-69.28v-274.080c0-39.168 30.112-69.28 66.272-69.28h99.36l298.144-204.8c36.128 0 66.272 30.112 66.272 69.28v686.688c0 36.128-30.112 66.272-66.272 66.272v0zM825.184 447.968c0 120.48-87.328 219.872-198.784 234.912v-69.28c75.296-15.072 132.512-84.32 132.512-168.672s-57.216-150.56-132.512-168.672v-69.28c114.432 21.088 198.784 120.48 198.784 240.928v0zM626.4 926.848v-69.28c192.768-39.168 331.296-201.76 331.296-406.56s-132.512-361.44-331.296-406.56v-69.28c222.88 33.12 397.568 234.912 397.568 478.88s-171.68 439.712-397.568 472.832v0z" />
<glyph unicode="&#xe951;" glyph-name="icon-warning-sign" d="M57.216 32.384l481.888 795.104h-54.24l481.888-795.104 27.104 48.16h-963.744l27.104-48.16zM6.016 65.504c-12.032-21.088 3.040-48.16 27.104-48.16h963.744c24.096 0 39.168 27.104 27.104 48.16l-481.888 795.104c-12.032 21.088-42.144 21.088-54.24 0l-481.888-795.104zM569.216 216.096c0-31.616-25.6-57.216-57.216-57.216s-57.216 25.6-57.216 57.216c0 31.616 25.6 57.216 57.216 57.216s57.216-25.6 57.216-57.216zM512 589.568v0c33.12 0 57.216-51.2 57.216-114.432v-57.216c0-63.232-27.104-114.432-57.216-114.432v0c-33.12 0-57.216 51.2-57.216 114.432v54.24c0 63.232 24.096 117.472 57.216 117.472z" />
<glyph unicode="&#xe952;" glyph-name="icon-wechat" d="M294.624 668.96q0 20.832-12.704 33.536t-33.536 12.704q-21.856 0-38.624-12.96t-16.768-33.248q0-19.808 16.768-32.768t38.624-12.96q20.832 0 33.536 12.448t12.704 33.248zM672 411.424q0 14.208-12.96 25.408t-33.248 11.2q-13.728 0-25.152-11.424t-11.424-25.152q0-14.208 11.424-25.632t25.152-11.424q20.32 0 33.248 11.2t12.96 25.888zM552.128 668.96q0 20.832-12.448 33.536t-33.248 12.704q-21.856 0-38.624-12.96t-16.768-33.248q0-19.808 16.768-32.768t38.624-12.96q20.832 0 33.248 12.448t12.448 33.248zM874.688 411.424q0 14.208-13.184 25.408t-33.024 11.2q-13.728 0-25.152-11.424t-11.424-25.152q0-14.208 11.424-25.632t25.152-11.424q19.808 0 33.024 11.2t13.184 25.888zM739.552 613.088q-15.744 2.048-35.584 2.048-85.824 0-157.952-39.104t-113.504-105.888-41.408-146.016q0-39.648 11.68-77.216-17.792-1.504-34.56-1.504-13.184 0-25.408 0.768t-27.936 3.296-22.592 3.552-27.68 5.344-25.408 5.344l-128.48-64.512 36.576 110.752q-147.296 103.136-147.296 248.896 0 85.824 49.536 157.952t134.112 113.504 184.608 41.408q89.376 0 168.896-33.536t133.088-92.704 69.344-132.32zM1040.256 328.128q0-59.424-34.784-113.504t-94.208-98.304l27.936-91.936-101.088 55.36q-76.192-18.816-110.752-18.816-85.824 0-157.952 35.808t-113.504 97.28-41.408 134.112 41.408 134.112 113.504 97.28 157.952 35.808q81.76 0 153.888-35.808t115.552-97.504 43.424-133.856z" />
<glyph unicode="&#xe953;" glyph-name="icon-weibo" d="M430.176 61.984c-169.632-16.8-316 60-327.008 171.232-11.008 111.392 117.6 215.008 286.976 231.776 169.632 16.8 316-60 326.816-171.232 11.232-111.392-117.408-215.2-286.816-231.776zM769.184 431.392c-14.368 4.384-24.416 7.2-16.8 26.208 16.384 41.216 18.016 76.576 0.224 101.984-33.184 47.392-124.192 45.024-228.384 1.184 0 0-32.8-14.176-24.416 11.616 16.032 51.616 13.6 94.624-11.424 119.584-56.576 56.576-207.008-2.208-336.032-131.232-96.416-96.224-152.416-198.816-152.416-287.392 0-169.216 217.184-272.16 429.6-272.16 278.368 0 463.84 161.792 463.84 290.208 0 77.824-65.376 121.824-124.192 140zM954.208 741.376c-67.232 74.592-166.4 103.008-258.016 83.616v0c-21.216-4.608-34.592-25.376-29.984-46.368 4.608-21.216 25.184-34.592 46.368-29.984 65.184 13.824 135.584-6.4 183.392-59.392s60.832-125.184 40.192-188.416v0c-6.624-20.576 4.608-42.592 25.184-49.408 20.576-6.624 42.592 4.608 49.408 25.184v0.224c28.832 88.416 10.592 189.984-56.576 264.608zM850.784 647.968c-32.8 36.384-81.184 50.176-125.6 40.608-18.176-3.808-29.792-22.016-26.016-40.192 4-18.176 22.016-29.792 39.968-25.824v0c21.792 4.608 45.408-2.208 61.408-19.808 16.032-17.824 20.384-41.984 13.408-63.2v0c-5.6-17.632 4-36.832 21.792-42.592 17.824-5.6 36.832 4 42.592 21.792 13.984 43.424 5.216 92.96-27.616 129.184zM439.584 263.424c-5.984-10.208-18.976-15.008-29.184-10.784-10.208 4-13.216 15.616-7.424 25.376 5.984 9.76 18.592 14.592 28.64 10.784 9.984-3.584 13.6-15.008 7.968-25.376zM385.376 194.208c-16.384-26.208-51.616-37.6-77.984-25.6-26.016 11.776-33.792 42.208-17.408 67.808 16.16 25.376 50.176 36.832 76.384 25.824 26.624-11.424 35.168-41.632 18.976-68zM446.976 379.392c-80.608 20.992-171.776-19.2-206.816-90.208-35.808-72.416-1.184-152.992 80.16-179.424 84.384-27.168 184.032 14.592 218.624 92.64 34.208 76.576-8.416 155.168-92 176.992z" />
<glyph unicode="&#xe954;" glyph-name="icon-youtube" d="M731.424 448q0 21.152-17.152 30.848l-292.576 182.848q-17.728 11.424-37.152 1.152-18.848-10.272-18.848-32v-365.728q0-21.728 18.848-32 9.152-4.576 17.728-4.576 11.424 0 19.424 5.728l292.576 182.848q17.152 9.728 17.152 30.848zM1024 448q0-54.848-0.576-85.728t-4.864-78.016-12.864-84.288q-9.152-41.728-39.424-70.272t-70.848-33.152q-126.848-14.272-383.424-14.272t-383.424 14.272q-40.576 4.576-71.136 33.152t-39.712 70.272q-8 37.152-12.288 84.288t-4.864 78.016-0.576 85.728 0.576 85.728 4.864 78.016 12.864 84.288q9.152 41.728 39.424 70.272t70.848 33.152q126.848 14.272 383.424 14.272t383.424-14.272q40.576-4.576 71.136-33.152t39.712-70.272q8-37.152 12.288-84.288t4.864-78.016 0.576-85.728z" />
</font>
</defs>
</svg>
